<svg aria-hidden="true" style="position: absolute; width: 0; height: 0; overflow: hidden;" version="1.1" xmlns="http://www.w3.org/2000/svg" xmlns:xlink="http://www.w3.org/1999/xlink">
<defs>
<symbol id="AC" viewBox="0 0 32 32">
<path d="M25 4c-1.33 0-2.6 0.52-3.54 1.46s-1.46 2.21-1.46 3.54c0 0.26-0.11 0.51-0.3 0.7s-0.44 0.3-0.7 0.3c-0.27 0-0.52-0.11-0.71-0.3s-0.29-0.44-0.29-0.7c0-1.39 0.41-2.74 1.17-3.89 0.77-1.16 1.87-2.050 3.15-2.58s2.68-0.67 4.040-0.4c1.36 0.27 2.61 0.94 3.58 1.92 0.98 0.97 1.65 2.22 1.92 3.58s0.13 2.76-0.4 4.040c-0.53 1.28-1.42 2.38-2.58 3.15-1.15 0.76-2.5 1.18-3.88 1.18h-24c-0.27 0-0.52-0.11-0.71-0.3s-0.29-0.44-0.29-0.7c0-0.27 0.1-0.52 0.29-0.71s0.44-0.29 0.71-0.29h24c1.32 0 2.59-0.53 3.53-1.47s1.47-2.21 1.47-3.53c0-1.33-0.53-2.6-1.47-3.54s-2.21-1.46-3.53-1.46zM11 6c-0.54 0-1.040 0.21-1.42 0.58-0.37 0.38-0.58 0.88-0.58 1.42 0 0.26-0.11 0.51-0.3 0.7s-0.44 0.3-0.7 0.3c-0.27 0-0.52-0.11-0.71-0.3s-0.29-0.44-0.29-0.7c0-0.8 0.23-1.57 0.67-2.23s1.060-1.17 1.79-1.47c0.74-0.3 1.54-0.38 2.32-0.23 0.77 0.16 1.48 0.54 2.040 1.1s0.94 1.27 1.1 2.040c0.15 0.78 0.070 1.58-0.23 2.32-0.3 0.73-0.81 1.35-1.47 1.79s-1.43 0.68-2.22 0.68h-10c-0.27 0-0.52-0.11-0.71-0.3s-0.29-0.44-0.29-0.7c0-0.27 0.1-0.52 0.29-0.71s0.44-0.29 0.71-0.29h10c0.53 0 1.030-0.22 1.41-0.59 0.37-0.38 0.59-0.88 0.59-1.41 0-0.54-0.22-1.040-0.59-1.42-0.38-0.37-0.88-0.58-1.41-0.58zM0 19c0-0.27 0.1-0.52 0.29-0.71s0.44-0.29 0.71-0.29h20.080c1.19 0 2.35 0.35 3.33 1.010 0.99 0.66 1.76 1.59 2.21 2.69 0.46 1.1 0.58 2.3 0.34 3.47-0.23 1.16-0.8 2.23-1.64 3.070s-1.91 1.41-3.070 1.64c-1.16 0.23-2.37 0.11-3.47-0.34-1.090-0.46-2.030-1.22-2.69-2.21s-1.010-2.15-1.010-3.33c0-0.27 0.1-0.52 0.29-0.71s0.44-0.29 0.71-0.29c0.26 0 0.52 0.1 0.71 0.29 0.18 0.19 0.29 0.44 0.29 0.71 0 0.79 0.23 1.56 0.67 2.22s1.070 1.17 1.8 1.47c0.73 0.3 1.53 0.38 2.31 0.23 0.78-0.16 1.49-0.54 2.050-1.1s0.94-1.27 1.090-2.040c0.16-0.78 0.080-1.58-0.23-2.32-0.3-0.73-0.81-1.35-1.47-1.79s-1.43-0.67-2.22-0.67h-20.080c-0.27 0-0.52-0.11-0.71-0.3s-0.29-0.44-0.29-0.7z"></path>
</symbol>
<symbol id="alcove" viewBox="0 0 32 32">
<path d="M8 4v4h-4v-4h4zM10 28v-4c0-0.54-0.22-1.040-0.59-1.42-0.38-0.37-0.88-0.58-1.41-0.58h-4c-0.54 0-1.040 0.21-1.42 0.58-0.37 0.38-0.58 0.88-0.58 1.42v4c0 0.53 0.21 1.030 0.58 1.41 0.38 0.37 0.88 0.59 1.42 0.59h4c0.53 0 1.030-0.22 1.41-0.59 0.37-0.38 0.59-0.88 0.59-1.41zM10 18v-4c0-0.54-0.22-1.040-0.59-1.42-0.38-0.37-0.88-0.58-1.41-0.58h-4c-0.54 0-1.040 0.21-1.42 0.58-0.37 0.38-0.58 0.88-0.58 1.42v4c0 0.53 0.21 1.030 0.58 1.41 0.38 0.37 0.88 0.59 1.42 0.59h4c0.53 0 1.030-0.22 1.41-0.59 0.37-0.38 0.59-0.88 0.59-1.41zM10 8v-4c0-0.54-0.22-1.040-0.59-1.42-0.38-0.37-0.88-0.58-1.41-0.58h-4c-0.54 0-1.040 0.21-1.42 0.58-0.37 0.38-0.58 0.88-0.58 1.42v4c0 0.53 0.21 1.030 0.58 1.41 0.38 0.37 0.88 0.59 1.42 0.59h4c0.53 0 1.030-0.22 1.41-0.59 0.37-0.38 0.59-0.88 0.59-1.41zM20 28v-4c0-0.54-0.22-1.040-0.59-1.42-0.38-0.37-0.88-0.58-1.41-0.58h-4c-0.54 0-1.040 0.21-1.42 0.58-0.37 0.38-0.58 0.88-0.58 1.42v4c0 0.53 0.21 1.030 0.58 1.41 0.38 0.37 0.88 0.59 1.42 0.59h4c0.53 0 1.030-0.22 1.41-0.59 0.37-0.38 0.59-0.88 0.59-1.41zM20 18v-4c0-0.54-0.22-1.040-0.59-1.42-0.38-0.37-0.88-0.58-1.41-0.58h-4c-0.54 0-1.040 0.21-1.42 0.58-0.37 0.38-0.58 0.88-0.58 1.42v4c0 0.53 0.21 1.030 0.58 1.41 0.38 0.37 0.88 0.59 1.42 0.59h4c0.53 0 1.030-0.22 1.41-0.59 0.37-0.38 0.59-0.88 0.59-1.41zM20 8v-4c0-0.54-0.22-1.040-0.59-1.42-0.38-0.37-0.88-0.58-1.41-0.58h-4c-0.54 0-1.040 0.21-1.42 0.58-0.37 0.38-0.58 0.88-0.58 1.42v4c0 0.53 0.21 1.030 0.58 1.41 0.38 0.37 0.88 0.59 1.42 0.59h4c0.53 0 1.030-0.22 1.41-0.59 0.37-0.38 0.59-0.88 0.59-1.41zM18 4v4h-4v-4h4zM28 4v4h-4v-4h4zM8 14v4h-4v-4h4zM18 14v4h-4v-4h4zM28 14h-4v4h4v-4zM8 24v4h-4v-4h4zM18 24v4h-4v-4h4zM28 24v4h-4v-4h4zM24 2c-0.54 0-1.040 0.21-1.42 0.58-0.37 0.38-0.58 0.88-0.58 1.42v4c0 0.53 0.21 1.030 0.58 1.41 0.38 0.37 0.88 0.59 1.42 0.59h4c0.53 0 1.030-0.22 1.41-0.59 0.37-0.38 0.59-0.88 0.59-1.41v-4c0-0.54-0.22-1.040-0.59-1.42-0.38-0.37-0.88-0.58-1.41-0.58h-4zM22 14c0-0.54 0.21-1.040 0.58-1.42 0.38-0.37 0.88-0.58 1.42-0.58h4c0.53 0 1.030 0.21 1.41 0.58 0.37 0.38 0.59 0.88 0.59 1.42v4c0 0.53-0.22 1.030-0.59 1.41-0.38 0.37-0.88 0.59-1.41 0.59h-4c-0.54 0-1.040-0.22-1.42-0.59-0.37-0.38-0.58-0.88-0.58-1.41v-4zM24 22c-0.54 0-1.040 0.21-1.42 0.58-0.37 0.38-0.58 0.88-0.58 1.42v4c0 0.53 0.21 1.030 0.58 1.41 0.38 0.37 0.88 0.59 1.42 0.59h4c0.53 0 1.030-0.22 1.41-0.59 0.37-0.38 0.59-0.88 0.59-1.41v-4c0-0.54-0.22-1.040-0.59-1.42-0.38-0.37-0.88-0.58-1.41-0.58h-4z"></path>
</symbol>
<symbol id="water" viewBox="0 0 32 32">
<path d="M14.42 1.59c0.96-1 1.58-1.59 1.58-1.59 0.21 0.72 0.46 1.41 0.74 2.070 1.62 3.89 4.14 6.7 6.39 9.2 2.62 2.92 4.87 5.42 4.87 8.73 0 3.18-1.27 6.23-3.52 8.48s-5.3 3.52-8.48 3.52c-3.19 0-6.24-1.27-8.49-3.52s-3.51-5.3-3.51-8.48c0-6.67 7.16-14.97 10.42-18.41zM15.24 3.64c-1.28 1.39-2.5 2.83-3.66 4.33-1.45 1.91-2.87 4.020-3.92 6.15-1.060 2.14-1.66 4.15-1.66 5.88 0 2.65 1.050 5.19 2.92 7.070 1.88 1.87 4.42 2.93 7.080 2.93 2.65 0 5.19-1.060 7.070-2.93 1.87-1.88 2.93-4.42 2.93-7.070 0-2.41-1.6-4.32-4.37-7.4l-0.060-0.070c-2.070-2.31-4.57-5.090-6.33-8.89z"></path>
<path d="M9.1 15.55c1.64-3.28 3.44-5.51 4.19-6.26l1.41 1.41c-0.58 0.58-2.25 2.63-3.81 5.74l-1.79-0.89z"></path>
</symbol>
<symbol id="engine" viewBox="0 0 32 32">
<path d="M6 4.992c0-0.272 0.096-0.512 0.288-0.704s0.432-0.288 0.704-0.288h10c0.272 0 0.512 0.096 0.704 0.288s0.304 0.432 0.304 0.704v10c0 0.272-0.112 0.512-0.304 0.704s-0.432 0.304-0.704 0.304h-10c-0.272 0-0.512-0.112-0.704-0.304s-0.288-0.432-0.288-0.704v-10z"></path>
<path d="M2 4c0-1.072 0.416-2.080 1.168-2.832s1.76-1.168 2.832-1.168h12c1.056 0 2.064 0.416 2.816 1.168s1.184 1.76 1.184 2.832v16c1.056 0 2.064 0.416 2.816 1.168s1.184 1.76 1.184 2.832v0.992c0 0.272 0.096 0.512 0.288 0.704s0.432 0.304 0.704 0.304c0.272 0 0.512-0.112 0.704-0.304s0.304-0.432 0.304-0.704v-8.992h-1.008c-0.272 0-0.512-0.112-0.704-0.304s-0.288-0.432-0.288-0.704v-6.256c0-0.256 0.096-0.512 0.288-0.704s0.432-0.288 0.704-0.288h2.992c-0.016-0.96-0.112-1.792-0.4-2.448-0.16-0.384-0.432-0.704-0.784-0.912-0.368-0.224-0.928-0.384-1.808-0.384-0.272 0-0.512-0.112-0.704-0.304s-0.288-0.432-0.288-0.704c0-0.272 0.096-0.512 0.288-0.704s0.432-0.288 0.704-0.288c1.136-0.016 2.064 0.208 2.832 0.656 0.752 0.464 1.264 1.104 1.584 1.824 0.592 1.312 0.592 2.928 0.592 4.16v6.352c0 0.128-0.032 0.256-0.080 0.384-0.048 0.112-0.128 0.224-0.224 0.32s-0.192 0.176-0.32 0.224c-0.128 0.048-0.256 0.080-0.384 0.080h-0.992v8.992c0 0.8-0.32 1.552-0.88 2.128-0.576 0.56-1.328 0.88-2.128 0.88s-1.552-0.32-2.128-0.88c-0.56-0.576-0.864-1.328-0.864-2.128v-0.992c0-0.544-0.224-1.040-0.592-1.424-0.384-0.368-0.88-0.576-1.408-0.576v8h0.992c0.272 0 0.512 0.096 0.704 0.288s0.304 0.432 0.304 0.704c0 0.272-0.112 0.512-0.304 0.704s-0.432 0.304-0.704 0.304h-22c-0.272 0-0.512-0.112-0.704-0.304s-0.288-0.432-0.288-0.704c0-0.272 0.096-0.512 0.288-0.704s0.432-0.288 0.704-0.288h1.008v-26zM20 4c0-0.544-0.224-1.040-0.592-1.424-0.384-0.368-0.88-0.576-1.408-0.576h-12c-0.544 0-1.040 0.208-1.424 0.576-0.368 0.384-0.576 0.88-0.576 1.424v26h16v-26z"></path>
</symbol>
<symbol id="fullyIntegrated" viewBox="0 0 32 32">
<path d="M2 5c0-0.8 0.31-1.56 0.87-2.13 0.57-0.56 1.33-0.87 2.13-0.87h6c0.79 0 1.55 0.31 2.12 0.87 0.56 0.57 0.88 1.33 0.88 2.13v6c0 0.79-0.32 1.55-0.88 2.12-0.57 0.56-1.33 0.88-2.12 0.88h-6c-0.8 0-1.56-0.32-2.13-0.88-0.56-0.57-0.87-1.33-0.87-2.12v-6zM5 4c-0.27 0-0.52 0.1-0.71 0.29s-0.29 0.44-0.29 0.71v6c0 0.26 0.1 0.51 0.29 0.7s0.44 0.3 0.71 0.3h6c0.26 0 0.51-0.11 0.7-0.3s0.3-0.44 0.3-0.7v-6c0-0.27-0.11-0.52-0.3-0.71s-0.44-0.29-0.7-0.29h-6zM18 5c0-0.8 0.31-1.56 0.87-2.13 0.57-0.56 1.33-0.87 2.13-0.87h6c0.79 0 1.55 0.31 2.12 0.87 0.56 0.57 0.88 1.33 0.88 2.13v6c0 0.79-0.32 1.55-0.88 2.12-0.57 0.56-1.33 0.88-2.12 0.88h-6c-0.8 0-1.56-0.32-2.13-0.88-0.56-0.57-0.87-1.33-0.87-2.12v-6zM21 4c-0.27 0-0.52 0.1-0.71 0.29s-0.29 0.44-0.29 0.71v6c0 0.26 0.1 0.51 0.29 0.7s0.44 0.3 0.71 0.3h6c0.26 0 0.51-0.11 0.7-0.3s0.3-0.44 0.3-0.7v-6c0-0.27-0.11-0.52-0.3-0.71s-0.44-0.29-0.7-0.29h-6zM2 21c0-0.8 0.31-1.56 0.87-2.13 0.57-0.56 1.33-0.87 2.13-0.87h6c0.79 0 1.55 0.31 2.12 0.87 0.56 0.57 0.88 1.33 0.88 2.13v6c0 0.79-0.32 1.55-0.88 2.12-0.57 0.56-1.33 0.88-2.12 0.88h-6c-0.8 0-1.56-0.32-2.13-0.88-0.56-0.57-0.87-1.33-0.87-2.12v-6zM5 20c-0.27 0-0.52 0.1-0.71 0.29s-0.29 0.44-0.29 0.71v6c0 0.26 0.1 0.51 0.29 0.7s0.44 0.3 0.71 0.3h6c0.26 0 0.51-0.11 0.7-0.3s0.3-0.44 0.3-0.7v-6c0-0.27-0.11-0.52-0.3-0.71s-0.44-0.29-0.7-0.29h-6zM18 21c0-0.8 0.31-1.56 0.87-2.13 0.57-0.56 1.33-0.87 2.13-0.87h6c0.79 0 1.55 0.31 2.12 0.87 0.56 0.57 0.88 1.33 0.88 2.13v6c0 0.79-0.32 1.55-0.88 2.12-0.57 0.56-1.33 0.88-2.12 0.88h-6c-0.8 0-1.56-0.32-2.13-0.88-0.56-0.57-0.87-1.33-0.87-2.12v-6zM21 20c-0.27 0-0.52 0.1-0.71 0.29s-0.29 0.44-0.29 0.71v6c0 0.26 0.1 0.51 0.29 0.7s0.44 0.3 0.71 0.3h6c0.26 0 0.51-0.11 0.7-0.3s0.3-0.44 0.3-0.7v-6c0-0.27-0.11-0.52-0.3-0.71s-0.44-0.29-0.7-0.29h-6z"></path>
</symbol>
<symbol id="heart" viewBox="0 0 32 32">
<path d="M23.6 2c-3.363 0-6.258 2.736-7.599 5.594-1.342-2.858-4.237-5.594-7.601-5.594-4.637 0-8.4 3.764-8.4 8.401 0 9.433 9.516 11.906 16.001 21.232 6.13-9.268 15.999-12.1 15.999-21.232 0-4.637-3.763-8.401-8.4-8.401z"></path>
</symbol>
<symbol id="kitchen" viewBox="0 0 32 32">
<path d="M0.99 12c-0.14 0-0.29 0.030-0.43 0.090-0.13 0.070-0.25 0.16-0.34 0.28-0.1 0.12-0.16 0.25-0.2 0.4-0.030 0.14-0.030 0.29 0 0.44l3.3 14.87c0.25 1.11 0.87 2.1 1.75 2.81 0.89 0.72 2 1.1 3.13 1.11h11.59c1.13-0.010 2.24-0.39 3.13-1.11 0.88-0.71 1.5-1.7 1.75-2.81l0.26-1.18c1.53 0.29 3.11-0.030 4.41-0.89s2.21-2.19 2.55-3.71c0.34-1.52 0.070-3.11-0.74-4.44-0.82-1.32-2.11-2.28-3.62-2.67l0.44-1.98c0.030-0.15 0.030-0.3 0-0.44-0.040-0.15-0.1-0.28-0.2-0.4-0.090-0.12-0.21-0.21-0.34-0.28-0.14-0.060-0.29-0.090-0.43-0.090h-26.010zM26 25c-0.22 0-0.43-0.020-0.64-0.050l1.74-7.8c0.92 0.27 1.72 0.86 2.24 1.67 0.53 0.81 0.74 1.78 0.61 2.73-0.14 0.95-0.61 1.83-1.34 2.46-0.72 0.63-1.65 0.98-2.61 0.99zM5.27 27.65l-3.030-13.65h23.51l-3.030 13.65c-0.15 0.66-0.52 1.26-1.060 1.68-0.53 0.43-1.19 0.66-1.87 0.67h-11.59c-0.68-0.010-1.34-0.24-1.87-0.67-0.54-0.42-0.91-1.020-1.060-1.68z"></path>
<path d="M8.8 1.6h-0.010l-0.030 0.040c-0.14 0.2-0.28 0.41-0.41 0.62-0.1 0.17-0.2 0.35-0.28 0.54-0.050 0.12-0.070 0.18-0.070 0.2v0.010c0.020 0.18 0.080 0.35 0.18 0.5 0.15 0.26 0.35 0.54 0.62 0.89l0.020 0.020c0.23 0.32 0.52 0.69 0.74 1.090s0.44 0.91 0.44 1.49c0 0.37-0.13 0.73-0.24 0.98-0.12 0.27-0.25 0.53-0.41 0.78-0.15 0.26-0.32 0.52-0.5 0.76l-0.040 0.050-0.010 0.020c-0.16 0.22-0.4 0.36-0.66 0.39-0.26 0.040-0.53-0.030-0.74-0.18-0.22-0.16-0.36-0.4-0.39-0.66-0.040-0.27 0.030-0.53 0.19-0.74v-0.010l0.030-0.040c0.14-0.2 0.28-0.41 0.41-0.62 0.1-0.17 0.2-0.35 0.28-0.53 0.050-0.12 0.070-0.19 0.070-0.21-0.020-0.18-0.080-0.35-0.18-0.5-0.18-0.32-0.39-0.61-0.61-0.89l-0.030-0.030c-0.27-0.34-0.51-0.71-0.73-1.080-0.28-0.46-0.43-0.97-0.44-1.49 0-0.38 0.13-0.74 0.23-0.99 0.12-0.28 0.27-0.55 0.41-0.78 0.16-0.26 0.32-0.51 0.5-0.76l0.050-0.070c0.16-0.22 0.4-0.36 0.66-0.39 0.26-0.040 0.53 0.030 0.74 0.19 0.22 0.15 0.36 0.39 0.39 0.65 0.040 0.27-0.030 0.53-0.18 0.75zM14.8 1.6h-0.010l-0.030 0.040c-0.14 0.2-0.28 0.41-0.41 0.62-0.1 0.17-0.2 0.35-0.28 0.54-0.050 0.12-0.070 0.18-0.070 0.2v0.010c0.020 0.18 0.080 0.35 0.18 0.5 0.15 0.26 0.36 0.54 0.62 0.89l0.020 0.020c0.23 0.32 0.52 0.69 0.74 1.090s0.44 0.91 0.44 1.49c0 0.37-0.13 0.73-0.24 0.98-0.12 0.27-0.25 0.53-0.41 0.78-0.15 0.26-0.32 0.52-0.5 0.76l-0.040 0.050-0.010 0.020c-0.16 0.22-0.4 0.36-0.66 0.39-0.26 0.040-0.53-0.030-0.74-0.18-0.22-0.16-0.36-0.4-0.39-0.66-0.040-0.27 0.030-0.53 0.19-0.74v-0.010l0.030-0.040c0.14-0.2 0.28-0.41 0.41-0.62 0.1-0.17 0.2-0.35 0.28-0.53 0.050-0.12 0.070-0.19 0.070-0.21-0.020-0.18-0.080-0.35-0.18-0.5-0.18-0.32-0.39-0.61-0.61-0.89l-0.020-0.030c-0.28-0.34-0.52-0.71-0.74-1.080-0.28-0.46-0.43-0.97-0.44-1.49 0-0.38 0.13-0.74 0.23-0.99 0.12-0.28 0.27-0.55 0.41-0.78 0.16-0.26 0.32-0.51 0.5-0.76l0.050-0.070c0.16-0.22 0.4-0.36 0.66-0.39 0.26-0.040 0.53 0.030 0.74 0.19 0.22 0.15 0.36 0.39 0.39 0.65 0.040 0.27-0.030 0.53-0.18 0.75zM20.8 1.6h-0.010l-0.030 0.040c-0.14 0.2-0.28 0.41-0.41 0.62-0.1 0.17-0.2 0.35-0.28 0.54-0.050 0.12-0.070 0.18-0.070 0.2v0.010c0.020 0.18 0.080 0.35 0.18 0.5 0.15 0.26 0.36 0.54 0.62 0.89l0.020 0.020c0.23 0.32 0.52 0.69 0.74 1.090s0.44 0.91 0.44 1.49c0 0.37-0.13 0.73-0.24 0.98-0.12 0.27-0.25 0.53-0.41 0.78-0.15 0.26-0.32 0.52-0.5 0.76l-0.040 0.050-0.010 0.020c-0.16 0.22-0.4 0.36-0.66 0.39-0.26 0.040-0.53-0.030-0.74-0.18-0.22-0.16-0.36-0.4-0.39-0.66-0.040-0.27 0.030-0.53 0.19-0.74v-0.010l0.030-0.040c0.14-0.2 0.28-0.41 0.41-0.62 0.1-0.17 0.2-0.35 0.28-0.53 0.050-0.12 0.070-0.19 0.070-0.21-0.020-0.18-0.080-0.35-0.18-0.5-0.18-0.32-0.39-0.61-0.61-0.89l-0.020-0.030c-0.28-0.34-0.52-0.71-0.74-1.080-0.28-0.46-0.43-0.97-0.44-1.49 0-0.38 0.12-0.74 0.23-0.99 0.12-0.28 0.27-0.55 0.41-0.78 0.16-0.26 0.32-0.51 0.5-0.76l0.050-0.070c0.16-0.22 0.4-0.36 0.66-0.39 0.26-0.040 0.53 0.030 0.74 0.19 0.22 0.15 0.36 0.39 0.39 0.65 0.040 0.27-0.030 0.53-0.18 0.75z"></path>
</symbol>
<symbol id="map" viewBox="0 0 32 32">
<path d="M31.632 0.224c0.112 0.080 0.208 0.208 0.272 0.336 0.048 0.144 0.096 0.288 0.096 0.432v28c-0.016 0.224-0.096 0.448-0.24 0.64-0.144 0.176-0.352 0.288-0.576 0.336l-10 2c-0.128 0.032-0.256 0.032-0.384 0l-9.808-1.952-9.808 1.952c-0.144 0.032-0.288 0.032-0.432 0-0.144-0.048-0.272-0.112-0.4-0.208-0.112-0.096-0.208-0.208-0.256-0.336-0.064-0.144-0.096-0.288-0.096-0.432v-28c0-0.224 0.080-0.448 0.224-0.64 0.144-0.176 0.352-0.288 0.576-0.336l10-2c0.128-0.032 0.256-0.032 0.384 0l9.808 1.952 9.808-1.952c0.144-0.032 0.288-0.032 0.432 0 0.144 0.048 0.272 0.112 0.4 0.208zM20 3.808l-8-1.6v25.968l8 1.6v-25.968zM22 29.776l8-1.6v-25.968l-8 1.6v25.968zM10 28.176v-25.968l-8 1.6v25.968l8-1.6z"></path>
</symbol>
<symbol id="people" viewBox="0 0 32 32">
<path d="M30 28c0 0 2 0 2-2s-2-8-10-8c-8 0-10 6-10 8s2 2 2 2h16zM14.032 26l-0.032-0.016c0-0.528 0.32-2.064 1.52-3.44 1.104-1.296 3.040-2.544 6.48-2.544 3.424 0 5.36 1.248 6.464 2.544 1.2 1.376 1.52 2.912 1.536 3.44h-0.016l-0.032 0.016h-15.92zM22 14c1.056 0 2.064-0.432 2.816-1.184s1.184-1.76 1.184-2.816c0-1.072-0.432-2.080-1.184-2.832s-1.76-1.168-2.816-1.168c-1.072 0-2.080 0.416-2.832 1.168s-1.168 1.76-1.168 2.832c0 1.056 0.416 2.064 1.168 2.816s1.76 1.184 2.832 1.184zM28 10c0 0.784-0.16 1.568-0.464 2.288-0.304 0.736-0.752 1.392-1.296 1.952-0.56 0.544-1.216 0.992-1.952 1.296-0.72 0.304-1.504 0.464-2.288 0.464-0.8 0-1.584-0.16-2.304-0.464s-1.392-0.752-1.952-1.296c-0.544-0.56-0.992-1.216-1.296-1.952-0.304-0.72-0.448-1.504-0.448-2.288 0-1.6 0.624-3.12 1.744-4.256 1.136-1.12 2.656-1.744 4.256-1.744 1.584 0 3.104 0.624 4.24 1.744 1.12 1.136 1.76 2.656 1.76 4.256zM13.872 18.56c-0.816-0.256-1.632-0.416-2.464-0.496-0.48-0.048-0.944-0.080-1.408-0.064-8 0-10 6-10 8 0 1.328 0.656 2 2 2h8.416c-0.288-0.64-0.432-1.312-0.416-2 0-2.032 0.752-4.096 2.176-5.808 0.48-0.592 1.040-1.152 1.696-1.632zM9.824 20c-1.168 1.776-1.808 3.856-1.824 6h-6c0-0.528 0.32-2.064 1.52-3.456 1.088-1.264 2.976-2.512 6.304-2.544v0zM2.992 10.992c0-1.584 0.64-3.12 1.76-4.24s2.656-1.76 4.24-1.76c1.584 0 3.12 0.64 4.24 1.76s1.76 2.656 1.76 4.24c0 1.584-0.64 3.12-1.76 4.24s-2.656 1.76-4.24 1.76c-1.584 0-3.12-0.64-4.24-1.76s-1.76-2.656-1.76-4.24zM8.992 6.992c-1.056 0-2.080 0.416-2.832 1.168s-1.168 1.776-1.168 2.832c0 1.056 0.416 2.080 1.168 2.832s1.776 1.168 2.832 1.168c1.056 0 2.080-0.416 2.832-1.168s1.168-1.776 1.168-2.832c0-1.056-0.416-2.080-1.168-2.832s-1.776-1.168-2.832-1.168z"></path>
</symbol>
<symbol id="radio" viewBox="0 0 32 32">
<path d="M14 4.992c0-0.272 0.096-0.512 0.288-0.704s0.432-0.288 0.704-0.288h14c0.272 0 0.512 0.096 0.704 0.288s0.304 0.432 0.304 0.704v2c0 0.272-0.112 0.512-0.304 0.704s-0.432 0.304-0.704 0.304h-14c-0.272 0-0.512-0.112-0.704-0.304s-0.288-0.432-0.288-0.704v-2zM0 24c0-1.6 0.624-3.12 1.744-4.256 1.136-1.12 2.656-1.744 4.256-1.744 1.584 0 3.104 0.624 4.24 1.744 1.12 1.136 1.76 2.656 1.76 4.256 0 1.584-0.64 3.104-1.76 4.24-1.136 1.12-2.656 1.76-4.24 1.76-1.6 0-3.12-0.64-4.256-1.76-1.12-1.136-1.744-2.656-1.744-4.24zM14 20.992c0-0.272 0.096-0.512 0.288-0.704s0.432-0.288 0.704-0.288h14c0.272 0 0.512 0.096 0.704 0.288s0.304 0.432 0.304 0.704v2c0 0.272-0.112 0.512-0.304 0.704s-0.432 0.304-0.704 0.304h-14c-0.272 0-0.512-0.112-0.704-0.304s-0.288-0.432-0.288-0.704v-2zM14 10.992c0-0.272 0.096-0.512 0.288-0.704s0.432-0.288 0.704-0.288h10c0.272 0 0.512 0.096 0.704 0.288s0.304 0.432 0.304 0.704c0 0.272-0.112 0.512-0.304 0.704s-0.432 0.304-0.704 0.304h-10c-0.272 0-0.512-0.112-0.704-0.304s-0.288-0.432-0.288-0.704zM14 26.992c0-0.272 0.096-0.512 0.288-0.704s0.432-0.288 0.704-0.288h10c0.272 0 0.512 0.096 0.704 0.288s0.304 0.432 0.304 0.704c0 0.272-0.112 0.512-0.304 0.704s-0.432 0.304-0.704 0.304h-10c-0.272 0-0.512-0.112-0.704-0.304s-0.288-0.432-0.288-0.704zM6 2c-0.8 0-1.584 0.144-2.304 0.448-0.736 0.304-1.392 0.752-1.952 1.296-0.544 0.56-0.992 1.216-1.296 1.952-0.304 0.72-0.448 1.504-0.448 2.304 0 0.784 0.144 1.568 0.448 2.288 0.304 0.736 0.752 1.392 1.296 1.952 0.56 0.544 1.216 0.992 1.952 1.296 0.72 0.304 1.504 0.464 2.304 0.464 1.584 0 3.104-0.64 4.24-1.76 1.12-1.136 1.76-2.656 1.76-4.24 0-1.6-0.64-3.12-1.76-4.256-1.136-1.12-2.656-1.744-4.24-1.744zM6 10.992c-0.8 0-1.568-0.32-2.128-0.88s-0.88-1.328-0.88-2.112c0-0.8 0.32-1.568 0.88-2.128s1.328-0.88 2.128-0.88c0.784 0 1.552 0.32 2.112 0.88s0.88 1.328 0.88 2.128c0 0.784-0.32 1.552-0.88 2.112s-1.328 0.88-2.112 0.88z"></path>
</symbol>
<symbol id="star" viewBox="0 0 32 32">
<path d="M15.1 1.66l-3.78 7.16c-0.14 0.28-0.4 0.46-0.7 0.52l-7.98 1.38c-0.8 0.14-1.1 1.1-0.54 1.68l5.64 5.8c0.22 0.24 0.32 0.54 0.26 0.84l-1.14 8.020c-0.12 0.8 0.7 1.4 1.42 1.040l7.26-3.58c0.28-0.12 0.62-0.12 0.9 0l7.26 3.58c0.72 0.36 1.54-0.24 1.42-1.040l-1.14-8.020c-0.060-0.3 0.040-0.6 0.26-0.84l5.64-5.8c0.56-0.58 0.26-1.54-0.54-1.68l-7.98-1.38c-0.3-0.060-0.56-0.24-0.7-0.52l-3.78-7.16c-0.38-0.7-1.4-0.7-1.78 0z"></path>
</symbol>
<symbol id="transmission" viewBox="0 0 32 32">
<path d="M12 7c0-0.8 0.31-1.56 0.87-2.13 0.57-0.56 1.33-0.87 2.13-0.87h2c0.79 0 1.55 0.31 2.12 0.87 0.56 0.57 0.88 1.33 0.88 2.13v2c0 0.79-0.32 1.55-0.88 2.12-0.57 0.56-1.33 0.88-2.12 0.88v2h11c0.26 0 0.51 0.1 0.7 0.29s0.3 0.44 0.3 0.71v2c0 0.26-0.11 0.51-0.3 0.7s-0.44 0.3-0.7 0.3c-0.27 0-0.52-0.11-0.71-0.3s-0.29-0.44-0.29-0.7v-1h-10v1c0 0.26-0.11 0.51-0.3 0.7s-0.44 0.3-0.7 0.3c-0.27 0-0.52-0.11-0.71-0.3s-0.29-0.44-0.29-0.7v-1h-10v1c0 0.26-0.11 0.51-0.3 0.7s-0.44 0.3-0.7 0.3c-0.27 0-0.52-0.11-0.71-0.3s-0.29-0.44-0.29-0.7v-2c0-0.27 0.1-0.52 0.29-0.71s0.44-0.29 0.71-0.29h11v-2c-0.8 0-1.56-0.32-2.13-0.88-0.56-0.57-0.87-1.33-0.87-2.12v-2zM17 10c0.26 0 0.51-0.11 0.7-0.3s0.3-0.44 0.3-0.7v-2c0-0.27-0.11-0.52-0.3-0.71s-0.44-0.29-0.7-0.29h-2c-0.27 0-0.52 0.1-0.71 0.29s-0.29 0.44-0.29 0.71v2c0 0.26 0.1 0.51 0.29 0.7s0.44 0.3 0.71 0.3h2zM0 23c0-0.8 0.31-1.56 0.87-2.13 0.57-0.56 1.33-0.87 2.13-0.87h2c0.79 0 1.55 0.31 2.12 0.87 0.56 0.57 0.88 1.33 0.88 2.13v2c0 0.79-0.32 1.55-0.88 2.12-0.57 0.56-1.33 0.88-2.12 0.88h-2c-0.8 0-1.56-0.32-2.13-0.88-0.56-0.57-0.87-1.33-0.87-2.12v-2zM3 22c-0.27 0-0.52 0.1-0.71 0.29s-0.29 0.44-0.29 0.71v2c0 0.26 0.1 0.51 0.29 0.7s0.44 0.3 0.71 0.3h2c0.26 0 0.51-0.11 0.7-0.3s0.3-0.44 0.3-0.7v-2c0-0.27-0.11-0.52-0.3-0.71s-0.44-0.29-0.7-0.29h-2zM12 23c0-0.8 0.31-1.56 0.87-2.13 0.57-0.56 1.33-0.87 2.13-0.87h2c0.79 0 1.55 0.31 2.12 0.87 0.56 0.57 0.88 1.33 0.88 2.13v2c0 0.79-0.32 1.55-0.88 2.12-0.57 0.56-1.33 0.88-2.12 0.88h-2c-0.8 0-1.56-0.32-2.13-0.88-0.56-0.57-0.87-1.33-0.87-2.12v-2zM15 22c-0.27 0-0.52 0.1-0.71 0.29s-0.29 0.44-0.29 0.71v2c0 0.26 0.1 0.51 0.29 0.7s0.44 0.3 0.71 0.3h2c0.26 0 0.51-0.11 0.7-0.3s0.3-0.44 0.3-0.7v-2c0-0.27-0.11-0.52-0.3-0.71s-0.44-0.29-0.7-0.29h-2zM24 23c0-0.8 0.31-1.56 0.87-2.13 0.57-0.56 1.33-0.87 2.13-0.87h2c0.79 0 1.55 0.31 2.12 0.87 0.56 0.57 0.88 1.33 0.88 2.13v2c0 0.79-0.32 1.55-0.88 2.12-0.57 0.56-1.33 0.88-2.12 0.88h-2c-0.8 0-1.56-0.32-2.13-0.88-0.56-0.57-0.87-1.33-0.87-2.12v-2zM27 22c-0.27 0-0.52 0.1-0.71 0.29s-0.29 0.44-0.29 0.71v2c0 0.26 0.1 0.51 0.29 0.7s0.44 0.3 0.71 0.3h2c0.26 0 0.51-0.11 0.7-0.3s0.3-0.44 0.3-0.7v-2c0-0.27-0.11-0.52-0.3-0.71s-0.44-0.29-0.7-0.29h-2z"></path>
</symbol>
<symbol id="TV" viewBox="0 0 32 32">
<path d="M0 8c0 0 0-4 4-4h24c0 0 4 0 4 4v12c0 0 0 4-4 4h-8c0 1.33 0.16 2.33 0.5 3h1.5c0.26 0 0.51 0.1 0.7 0.29s0.3 0.44 0.3 0.71c0 0.26-0.11 0.51-0.3 0.7s-0.44 0.3-0.7 0.3h-12c-0.27 0-0.52-0.11-0.71-0.3s-0.29-0.44-0.29-0.7c0-0.27 0.1-0.52 0.29-0.71s0.44-0.29 0.71-0.29h1.5c0.33-0.67 0.5-1.67 0.5-3h-8c0 0-4 0-4-4v-12zM2.79 6.28c-0.22 0.16-0.39 0.37-0.51 0.61-0.17 0.35-0.26 0.73-0.28 1.13v11.98c0 0.65 0.15 1 0.29 1.2 0.14 0.21 0.34 0.38 0.6 0.51 0.34 0.16 0.7 0.26 1.080 0.28l0.050 0.010h23.98c0.65 0 1-0.16 1.2-0.29 0.22-0.16 0.39-0.37 0.51-0.61 0.16-0.34 0.26-0.7 0.28-1.070l0.010-0.050v-11.98c0-0.66-0.16-1.010-0.29-1.21-0.16-0.22-0.37-0.39-0.61-0.51-0.35-0.17-0.73-0.26-1.12-0.28h-23.98c-0.65 0-1.010 0.15-1.21 0.28z"></path>
</symbol>
<symbol id="panelTruck" viewBox="0 0 32 32">
<path d="M12 2h-10v28h10v-28zM30 2h-10v10h10v-10zM30 20v10h-10v-10h10zM0 2c0-0.54 0.21-1.040 0.58-1.42 0.38-0.37 0.88-0.58 1.42-0.58h10c0.53 0 1.030 0.21 1.41 0.58 0.37 0.38 0.59 0.88 0.59 1.42v28c0 0.53-0.22 1.030-0.59 1.41-0.38 0.37-0.88 0.59-1.41 0.59h-10c-0.54 0-1.040-0.22-1.42-0.59-0.37-0.38-0.58-0.88-0.58-1.41v-28zM18 2c0-0.54 0.21-1.040 0.58-1.42 0.38-0.37 0.88-0.58 1.42-0.58h10c0.53 0 1.030 0.21 1.41 0.58 0.37 0.38 0.59 0.88 0.59 1.42v10c0 0.53-0.22 1.030-0.59 1.41-0.38 0.37-0.88 0.59-1.41 0.59h-10c-0.54 0-1.040-0.22-1.42-0.59-0.37-0.38-0.58-0.88-0.58-1.41v-10zM20 18c-0.54 0-1.040 0.21-1.42 0.58-0.37 0.38-0.58 0.88-0.58 1.42v10c0 0.53 0.21 1.030 0.58 1.41 0.38 0.37 0.88 0.59 1.42 0.59h10c0.53 0 1.030-0.22 1.41-0.59 0.37-0.38 0.59-0.88 0.59-1.41v-10c0-0.54-0.22-1.040-0.59-1.42-0.38-0.37-0.88-0.58-1.41-0.58h-10z"></path>
</symbol>
<symbol id="TravelTrucks" viewBox="0 0 294 32">
<path fill="#475467" style="fill: var(--color1, #475467)" d="M293.84 15.583h-7.835c-0.043-0.477-0.217-0.89-0.499-1.237-0.304-0.347-0.695-0.629-1.172-0.803-0.456-0.195-0.977-0.304-1.541-0.304-0.716 0-1.346 0.13-1.866 0.412-0.543 0.26-0.781 0.651-0.781 1.129 0 0.347 0.13 0.673 0.456 0.977 0.304 0.304 0.933 0.521 1.823 0.694l4.818 0.868c2.431 0.434 4.232 1.172 5.404 2.235 1.194 1.042 1.801 2.431 1.801 4.167 0 1.693-0.499 3.147-1.498 4.406-0.998 1.215-2.344 2.192-4.058 2.865s-3.668 0.998-5.838 0.998c-3.624 0-6.446-0.738-8.508-2.214-2.018-1.498-3.169-3.429-3.407-5.86h8.464c0.109 0.738 0.477 1.324 1.107 1.736 0.629 0.391 1.432 0.608 2.387 0.608 0.781 0 1.432-0.13 1.932-0.412 0.521-0.26 0.781-0.651 0.781-1.129 0-0.456-0.217-0.825-0.673-1.085-0.434-0.26-1.107-0.477-2.040-0.651l-4.189-0.738c-2.409-0.412-4.21-1.215-5.426-2.409-1.194-1.172-1.801-2.691-1.78-4.558-0.022-1.649 0.412-3.038 1.302-4.167 0.868-1.15 2.127-2.040 3.776-2.626 1.628-0.608 3.581-0.912 5.838-0.912 3.407 0 6.12 0.716 8.095 2.127s3.017 3.386 3.125 5.882z"></path>
<path fill="#475467" style="fill: var(--color1, #475467)" d="M252.647 25.957l4.449-5.686h2.387l9.636-12.393h-9.571l-5.73 7.965h-1.107l-0.065 10.114zM245.008 31.557v-31.556h8.508v31.556h-8.508zM259.614 31.557l-5.426-9.376 5.556-6.034 9.615 15.409h-9.745z"></path>
<path fill="#475467" style="fill: var(--color1, #475467)" d="M229.208 31.991c-2.561 0-4.753-0.521-6.598-1.519-1.823-1.042-3.212-2.474-4.189-4.297-0.977-1.845-1.476-3.972-1.476-6.402 0-2.409 0.499-4.536 1.476-6.381 0.977-1.823 2.366-3.255 4.189-4.276 1.845-1.020 4.037-1.541 6.598-1.541 2.322 0 4.341 0.412 6.034 1.259 1.715 0.846 3.038 2.018 3.972 3.559 0.933 1.519 1.411 3.299 1.411 5.361h-7.9c-0.109-1.259-0.456-2.192-1.063-2.843s-1.367-0.977-2.322-0.977c-0.738 0-1.389 0.195-1.932 0.629-0.564 0.434-0.998 1.063-1.302 1.932-0.304 0.846-0.456 1.932-0.456 3.234 0 1.28 0.152 2.366 0.456 3.234 0.304 0.846 0.738 1.498 1.302 1.932 0.543 0.412 1.194 0.629 1.932 0.629 0.629 0 1.194-0.152 1.671-0.434 0.477-0.304 0.868-0.738 1.172-1.302s0.499-1.28 0.543-2.084h7.9c-0.022 2.084-0.499 3.885-1.432 5.447-0.933 1.541-2.235 2.735-3.928 3.581s-3.711 1.259-6.055 1.259z"></path>
<path fill="#475467" style="fill: var(--color1, #475467)" d="M204.097 21.204v-13.326h8.508v23.678h-8.074v-4.493h-0.239c-0.521 1.498-1.411 2.691-2.691 3.538-1.302 0.846-2.821 1.259-4.579 1.259-1.671 0-3.104-0.369-4.362-1.129-1.215-0.76-2.192-1.823-2.865-3.147-0.695-1.346-1.042-2.865-1.042-4.601v-15.105h8.508v13.326c0.022 1.172 0.304 2.084 0.89 2.756 0.608 0.673 1.432 0.998 2.496 0.998 0.716 0 1.324-0.152 1.845-0.456s0.912-0.738 1.194-1.28c0.282-0.564 0.434-1.237 0.412-2.018z"></path>
<path fill="#475467" style="fill: var(--color1, #475467)" d="M169.068 31.557v-23.678h8.247v4.514h0.26c0.434-1.671 1.107-2.887 2.040-3.668 0.955-0.76 2.062-1.15 3.321-1.15 0.369 0 0.738 0.022 1.085 0.087 0.369 0.065 0.738 0.13 1.063 0.239v7.249c-0.412-0.13-0.933-0.239-1.541-0.326-0.629-0.065-1.15-0.109-1.584-0.109-0.846 0-1.584 0.195-2.257 0.586-0.651 0.369-1.172 0.89-1.563 1.563-0.369 0.673-0.564 1.454-0.564 2.366v12.327h-8.508z"></path>
<path fill="#475467" style="fill: var(--color1, #475467)" d="M139.877 6.902v-6.902h27.433v6.902h-9.506v24.655h-8.443v-24.655h-9.484z"></path>
<path fill="#101828" style="fill: var(--color2, #101828)" d="M135.645 0v31.556h-8.508v-31.556h8.508z"></path>
<path fill="#101828" style="fill: var(--color2, #101828)" d="M111.207 31.991c-2.518 0-4.71-0.477-6.533-1.454s-3.212-2.366-4.21-4.189c-0.977-1.823-1.454-4.015-1.454-6.576 0-2.431 0.477-4.579 1.476-6.402 0.977-1.823 2.366-3.255 4.167-4.276s3.928-1.519 6.381-1.519c1.78 0 3.407 0.282 4.84 0.825 1.454 0.564 2.691 1.367 3.733 2.431 1.020 1.042 1.801 2.322 2.366 3.82 0.543 1.498 0.825 3.19 0.825 5.079v1.975h-21.139v-4.688h13.304c0-0.695-0.174-1.28-0.521-1.801-0.326-0.521-0.76-0.933-1.324-1.215-0.564-0.304-1.194-0.434-1.91-0.434-0.695 0-1.324 0.13-1.888 0.434-0.586 0.282-1.042 0.694-1.389 1.194-0.347 0.521-0.521 1.129-0.543 1.823v5.057c0 0.76 0.152 1.432 0.477 2.018 0.326 0.608 0.781 1.063 1.367 1.411 0.608 0.347 1.324 0.499 2.17 0.499 0.586 0 1.107-0.065 1.606-0.239 0.477-0.174 0.912-0.391 1.259-0.716 0.347-0.304 0.608-0.695 0.76-1.129h7.77c-0.26 1.649-0.89 3.060-1.888 4.276s-2.322 2.149-3.972 2.8c-1.628 0.673-3.538 0.998-5.73 0.998z"></path>
<path fill="#101828" style="fill: var(--color2, #101828)" d="M97.296 7.878l-7.943 23.678h-9.875l-7.943-23.678h8.942l3.82 15.67h0.239l3.82-15.67h8.942z"></path>
<path fill="#101828" style="fill: var(--color2, #101828)" d="M54.367 31.925c-1.498 0-2.843-0.239-4.015-0.738-1.15-0.499-2.040-1.259-2.713-2.279-0.651-1.020-0.977-2.322-0.977-3.885 0-1.302 0.217-2.409 0.673-3.321 0.434-0.912 1.042-1.671 1.845-2.257 0.781-0.586 1.715-1.042 2.756-1.346 1.063-0.304 2.192-0.499 3.429-0.608 1.324-0.087 2.387-0.217 3.19-0.369s1.389-0.369 1.758-0.629c0.347-0.282 0.521-0.629 0.521-1.085v-0.065c0-0.629-0.217-1.085-0.694-1.411-0.477-0.347-1.085-0.499-1.823-0.499-0.803 0-1.476 0.174-1.997 0.543-0.499 0.347-0.803 0.89-0.912 1.606h-7.813c0.087-1.432 0.543-2.756 1.367-3.972s2.018-2.192 3.581-2.93c1.584-0.738 3.538-1.107 5.903-1.107 1.693 0 3.212 0.195 4.558 0.608 1.346 0.391 2.496 0.933 3.429 1.649 0.955 0.694 1.671 1.519 2.17 2.452s0.738 1.953 0.738 3.060v16.212h-7.943v-3.321h-0.195c-0.456 0.868-1.042 1.584-1.715 2.127s-1.432 0.955-2.301 1.194c-0.846 0.239-1.801 0.369-2.821 0.369zM57.145 26.565c0.651 0 1.259-0.13 1.823-0.412 0.564-0.26 1.042-0.651 1.389-1.15 0.369-0.499 0.543-1.107 0.543-1.823v-1.975c-0.217 0.087-0.456 0.174-0.716 0.26-0.239 0.087-0.521 0.152-0.803 0.239-0.282 0.065-0.586 0.13-0.89 0.195s-0.629 0.109-0.977 0.174c-0.651 0.087-1.194 0.26-1.628 0.499-0.412 0.217-0.716 0.499-0.912 0.846-0.195 0.326-0.304 0.695-0.304 1.107 0 0.651 0.239 1.172 0.694 1.519 0.477 0.347 1.063 0.521 1.78 0.521z"></path>
<path fill="#101828" style="fill: var(--color2, #101828)" d="M29.191 31.557v-23.678h8.247v4.514h0.26c0.434-1.671 1.107-2.887 2.040-3.668 0.955-0.76 2.062-1.15 3.321-1.15 0.369 0 0.738 0.022 1.085 0.087 0.369 0.065 0.738 0.13 1.063 0.239v7.249c-0.412-0.13-0.933-0.239-1.541-0.326-0.629-0.065-1.15-0.109-1.606-0.109-0.825 0-1.563 0.195-2.235 0.586-0.673 0.369-1.172 0.89-1.563 1.563-0.369 0.673-0.564 1.454-0.564 2.366v12.327h-8.508z"></path>
<path fill="#101828" style="fill: var(--color2, #101828)" d="M0 6.902v-6.902h27.433v6.902h-9.506v24.655h-8.443v-24.655h-9.484z"></path>
</symbol>
<symbol id="gas" viewBox="0 0 32 32">
<path d="M6.773 1.496c-2.368 0.123-3.736 0.752-4.51 2.070-0.462 0.79-0.68 1.73-0.77 3.325-0.067 1.216-0.067 16.894 0 18.176 0.112 2.13 0.464 3.189 1.358 4.082 0.67 0.67 1.48 1.034 2.757 1.235 0.566 0.090 1.227 0.096 10.392 0.096 9.184 0 9.824-0.006 10.4-0.096 2.462-0.389 3.645-1.618 4.011-4.171 0.054-0.378 0.069-2.546 0.069-10.266 0-9.264-0.005-9.819-0.098-10.374-0.406-2.416-1.594-3.595-4.003-3.973-0.202-0.032-0.789-0.080-1.306-0.107-1.104-0.059-17.166-0.056-18.301 0.003zM25.28 3.894c2.31 0.176 2.701 0.627 2.827 3.278 0.064 1.341 0.064 16.232 0 17.606-0.091 1.96-0.342 2.629-1.114 2.973-0.462 0.205-1.061 0.304-2.166 0.357-1.32 0.062-16.334 0.062-17.654 0-1.475-0.070-2.226-0.25-2.613-0.626-0.378-0.368-0.574-1.021-0.666-2.208-0.075-0.981-0.074-17.661 0.002-18.587 0.091-1.133 0.286-1.816 0.619-2.163 0.304-0.318 1.069-0.547 2.091-0.626 0.856-0.067 17.81-0.070 18.674-0.005zM15.677 5.514c-0.512 0.136-0.824 0.52-0.883 1.083l-0.034 0.323-0.301 0.066c-2.194 0.49-4.126 2.342-4.728 4.534l-0.16 0.573c-0.013 0.042-0.122 0.067-0.291 0.067-0.635 0-1.12 0.509-1.12 1.173 0 0.662 0.41 1.102 1.088 1.17l0.315 0.030 0.125 0.469c0.613 2.239 2.329 3.971 4.512 4.595l0.046 0.011 0.514 0.142 0.035 0.29c0.085 0.726 0.605 1.179 1.288 1.122 0.605-0.055 1.078-0.555 1.090-1.167l0-0.001c0-0.187 0.021-0.261 0.075-0.261 0.21 0 1.090-0.304 1.608-0.557 1.661-0.828 2.9-2.291 3.414-4.062l0.012-0.046 0.152-0.534 0.328-0.030c0.605-0.059 1.026-0.477 1.069-1.061 0.026-0.376-0.054-0.643-0.27-0.89-0.224-0.254-0.438-0.357-0.811-0.39l-0.318-0.029-0.070-0.266c-0.458-1.734-1.386-3.072-2.76-3.981-0.594-0.392-1.675-0.846-2.221-0.934l-0.206-0.032v-0.262c0-0.002 0-0.005 0-0.008 0-0.651-0.528-1.179-1.179-1.179-0.113 0-0.222 0.016-0.325 0.045l0.008-0.002zM15.078 9.437c0.089 0.099 0.193 0.182 0.309 0.247l0.006 0.003c0.458 0.269 1.029 0.187 1.445-0.208l0.171-0.163 0.326 0.099c1.042 0.315 2.142 1.384 2.536 2.461l0.141 0.387-0.218 0.246c-0.27 0.309-0.35 0.541-0.314 0.931 0.029 0.323 0.206 0.672 0.416 0.819 0.147 0.102 0.122 0.221-0.19 0.861-0.491 1.005-1.347 1.768-2.392 2.124l-0.029 0.009-0.285 0.093-0.115-0.133c-0.187-0.228-0.461-0.378-0.771-0.398l-0.003-0c-0.397-0.035-0.656 0.050-0.939 0.312-0.246 0.227-0.246 0.227-0.821-0.003-0.602-0.24-1.32-0.827-1.75-1.429-0.254-0.358-0.6-1.086-0.602-1.267 0-0.059 0.074-0.176 0.162-0.261 0.254-0.238 0.338-0.446 0.339-0.837 0.002-0.286-0.026-0.395-0.146-0.598-0.066-0.122-0.152-0.225-0.254-0.307l-0.002-0.001c-0.16-0.085-0.107-0.336 0.203-0.955 0.214-0.429 0.331-0.586 0.762-1.014 0.538-0.534 0.909-0.787 1.458-0.99 0.411-0.152 0.477-0.155 0.557-0.026zM7.493 24.248c-0.432 0.229-0.667 0.605-0.666 1.070 0.003 0.514 0.261 0.92 0.704 1.106 0.171 0.072 0.6 0.083 3.147 0.082 2.755-0.002 2.962-0.008 3.162-0.101 0.888-0.41 0.896-1.69 0.016-2.142-0.189-0.098-0.349-0.102-3.2-0.101-2.63 0.003-3.022 0.013-3.163 0.086zM23.493 24.248c-0.397 0.192-0.666 0.591-0.666 1.054 0 0.011 0 0.022 0 0.033l-0-0.002c0 0.387 0.118 0.653 0.402 0.902 0.254 0.222 0.413 0.28 0.771 0.28s0.517-0.058 0.771-0.28c0.247-0.202 0.403-0.506 0.403-0.848 0-0.019-0-0.038-0.002-0.058l0 0.003c0-0.48-0.226-0.853-0.651-1.070-0.248-0.128-0.797-0.136-1.029-0.014z"></path>
</symbol>
<symbol id="bathroom" viewBox="0 0 32 32">
<path d="M8 29.5c0 0.29-0.090 0.58-0.26 0.83-0.16 0.25-0.4 0.44-0.67 0.55-0.28 0.11-0.58 0.14-0.87 0.090-0.29-0.060-0.56-0.2-0.77-0.41s-0.35-0.48-0.41-0.77c-0.050-0.29-0.020-0.59 0.090-0.87 0.11-0.27 0.3-0.51 0.55-0.67 0.25-0.17 0.54-0.25 0.84-0.25 0.39 0 0.77 0.15 1.060 0.43 0.28 0.29 0.44 0.67 0.44 1.070zM10.5 24c-0.3 0-0.59 0.080-0.84 0.25-0.25 0.16-0.44 0.4-0.55 0.67-0.11 0.28-0.14 0.58-0.090 0.87 0.060 0.29 0.2 0.56 0.41 0.77s0.48 0.35 0.77 0.41c0.29 0.050 0.59 0.020 0.87-0.090 0.27-0.11 0.51-0.3 0.67-0.55 0.17-0.25 0.26-0.54 0.26-0.83 0-0.4-0.16-0.78-0.44-1.070-0.29-0.28-0.67-0.43-1.060-0.43zM2.5 24c-0.3 0-0.59 0.080-0.84 0.25-0.25 0.16-0.44 0.4-0.55 0.67-0.11 0.28-0.14 0.58-0.090 0.87 0.060 0.29 0.2 0.56 0.41 0.77s0.48 0.35 0.77 0.41c0.29 0.050 0.59 0.020 0.87-0.090 0.27-0.11 0.51-0.3 0.67-0.55 0.17-0.25 0.26-0.54 0.26-0.83 0-0.4-0.16-0.78-0.44-1.070-0.29-0.28-0.67-0.43-1.060-0.43zM6.5 20c-0.3 0-0.59 0.080-0.84 0.25-0.25 0.16-0.44 0.4-0.55 0.67-0.11 0.28-0.14 0.58-0.090 0.87 0.060 0.29 0.2 0.56 0.41 0.77s0.48 0.35 0.77 0.41c0.29 0.050 0.59 0.020 0.87-0.090 0.27-0.11 0.51-0.3 0.67-0.55 0.17-0.25 0.26-0.54 0.26-0.83 0-0.4-0.16-0.78-0.44-1.070-0.29-0.28-0.67-0.43-1.060-0.43zM32 5c0 0.26-0.11 0.51-0.3 0.7s-0.44 0.3-0.7 0.3h-3.59l-3.48 3.48-2.71 15.85c-0.060 0.36-0.22 0.7-0.46 0.97-0.24 0.28-0.55 0.49-0.9 0.6s-0.73 0.12-1.080 0.040c-0.36-0.090-0.69-0.27-0.95-0.53l-12.25-12.25c-0.26-0.26-0.44-0.59-0.53-0.94-0.080-0.36-0.070-0.74 0.040-1.090 0.12-0.35 0.32-0.66 0.6-0.9s0.62-0.4 0.98-0.46l15.84-2.71 3.78-3.77c0.090-0.1 0.2-0.17 0.32-0.22s0.25-0.080 0.39-0.070h4c0.26 0 0.51 0.1 0.7 0.29s0.3 0.44 0.3 0.71zM21.77 10.22l-14.77 2.53 12.25 12.25 2.52-14.78z"></path>
</symbol>
<symbol id="microwave" viewBox="0 0 37 32">
<path d="M3.784 0.095c-1.768 0.392-3.153 1.709-3.635 3.407l-0.008 0.034c-0.104 0.38-0.11 1.014-0.11 10.729 0 11.593-0.039 10.623 0.465 11.628 0.536 1.065 1.564 1.981 2.646 2.357 0.646 0.224 1.117 0.278 2.48 0.278h1.248l0.023 1.256c0.021 1.242 0.023 1.259 0.193 1.549 0.415 0.702 1.348 0.866 1.948 0.341 0.409-0.361 0.451-0.538 0.453-1.921l0.002-1.225h18.16l0.021 1.256c0.021 1.205 0.027 1.267 0.177 1.533 0.224 0.399 0.644 0.665 1.127 0.665 0.32 0 0.612-0.116 0.837-0.309l-0.002 0.001c0.411-0.361 0.453-0.538 0.455-1.915v-1.219l1.535-0.029c1.601-0.031 1.784-0.056 2.496-0.357 1.035-0.472 1.86-1.253 2.375-2.224l0.013-0.027c0.54-1.103 0.492-0.042 0.513-11.388 0.019-11.007 0.027-10.688-0.336-11.547-0.64-1.512-2.073-2.667-3.599-2.899-0.71-0.108-28.941-0.085-29.477 0.025zM33.205 2.733c0.368 0.139 0.883 0.561 1.088 0.893 0.326 0.525 0.312 0.054 0.312 10.64 0 10.625 0.017 10.104-0.326 10.646-0.247 0.359-0.573 0.646-0.953 0.843l-0.014 0.007-0.287 0.133-28.675 0.031-0.361-0.133c-0.562-0.249-1.001-0.689-1.244-1.235l-0.006-0.015-0.133-0.357v-9.919c0-9.828 0.002-9.921 0.127-10.256 0.213-0.578 0.654-1.028 1.211-1.249l0.014-0.005 0.353-0.145 14.279-0.002c14.252-0.002 14.276-0.002 14.617 0.125zM9.489 6.949c-1.113 0.156-2.025 0.926-2.432 2.056l-0.141 0.393-0.021 4.492c-0.010 2.862 0.006 4.683 0.048 5.020 0.131 1.082 0.75 1.948 1.72 2.411l0.486 0.233 5.873 0.017c5.824 0.017 5.878 0.015 6.26-0.114 0.8-0.271 1.434-0.849 1.774-1.589l0.008-0.019 0.224-0.465 0.017-5.007c0.017-4.943 0.015-5.009-0.114-5.392-0.365-1.072-1.285-1.862-2.409-2.033l-0.017-0.002c-0.538-0.071-10.773-0.069-11.275 0zM28.709 6.942c-0.364 0.081-0.664 0.305-0.844 0.609l-0.003 0.006-0.17 0.289-0.019 6.141c-0.010 3.377-0.002 6.283 0.019 6.457 0.052 0.396 0.264 0.735 0.569 0.953l0.004 0.003c0.166 0.114 0.322 0.156 0.644 0.174 0.372 0.021 0.457 0.004 0.706-0.141 0.178-0.114 0.327-0.254 0.447-0.417l0.003-0.005 0.168-0.255 0.019-6.361c0.012-4.409-0.002-6.432-0.048-6.592-0.172-0.594-0.852-0.984-1.495-0.86zM20.598 9.609l0.147 0.118 0.017 4.424c0.017 4.706 0.017 4.721-0.278 4.833-0.231 0.087-10.517 0.075-10.708-0.012-0.097-0.052-0.174-0.133-0.221-0.23l-0.001-0.003c-0.048-0.114-0.062-1.506-0.050-4.588l0.017-4.424 0.145-0.118c0.141-0.114 0.322-0.118 5.466-0.118s5.325 0.004 5.466 0.118z"></path>
</symbol>
<symbol id="refrigerator" viewBox="0 0 32 32">
<path d="M23.66 9.33c0-0.27-0.1-0.52-0.29-0.71s-0.44-0.29-0.71-0.29c-0.26 0-0.52 0.1-0.71 0.29-0.18 0.19-0.29 0.44-0.29 0.71v2.67c0 0.26 0.11 0.51 0.29 0.7 0.19 0.19 0.45 0.3 0.71 0.3 0.27 0 0.52-0.11 0.71-0.3s0.29-0.44 0.29-0.7v-2.67zM23.66 18.66c0-0.26-0.1-0.52-0.29-0.71-0.19-0.18-0.44-0.29-0.71-0.29-0.26 0-0.52 0.11-0.71 0.29-0.18 0.19-0.29 0.45-0.29 0.71v2.67c0 0.26 0.11 0.52 0.29 0.71 0.19 0.18 0.45 0.29 0.71 0.29 0.27 0 0.52-0.11 0.71-0.29 0.19-0.19 0.29-0.45 0.29-0.71v-2.67z"></path>
<path d="M16.070 1.66h-0.15c-2.45 0-4.39 0-5.91 0.21-1.56 0.21-2.83 0.65-3.83 1.65-0.99 0.99-1.44 2.26-1.65 3.82-0.2 1.52-0.2 3.46-0.2 5.91v4.15c0 2.45 0 4.4 0.2 5.91 0.21 1.57 0.66 2.83 1.65 3.83 0.62 0.61 1.33 1.020 2.15 1.28v0.91c0 0.55 0.45 1 1 1h1.33c0.27 0 0.52-0.11 0.71-0.29 0.19-0.19 0.29-0.45 0.29-0.71v-0.4c1.21 0.060 2.62 0.060 4.26 0.060h0.15c1.64 0 3.050 0 4.26-0.060v0.4c0 0.55 0.45 1 1 1h1.33c0.27 0 0.52-0.11 0.71-0.29 0.19-0.19 0.29-0.45 0.29-0.71v-0.91c0.82-0.26 1.54-0.67 2.15-1.28 0.99-1 1.44-2.26 1.65-3.83 0.2-1.52 0.2-3.46 0.2-5.91v-4.15c0-2.45 0-4.39-0.2-5.91-0.21-1.56-0.66-2.82-1.65-3.82-1-1-2.27-1.44-3.83-1.65-1.52-0.21-3.46-0.21-5.91-0.21v0zM7.6 4.93c0.56-0.56 1.33-0.9 2.68-1.080 1.37-0.19 3.17-0.19 5.72-0.19 2.54 0 4.34 0 5.72 0.19 1.34 0.18 2.11 0.52 2.67 1.080 0.57 0.56 0.91 1.34 1.090 2.68 0.18 1.37 0.18 3.18 0.18 5.72v1h-19.33v-1c0-2.54 0-4.35 0.18-5.72 0.18-1.34 0.52-2.12 1.090-2.68zM6.33 16.33h19.33v1c0 2.54 0 4.35-0.18 5.72-0.18 1.34-0.52 2.11-1.090 2.68-0.56 0.56-1.33 0.9-2.68 1.080-1.37 0.18-3.17 0.18-5.71 0.18-2.55 0-4.35 0-5.72-0.18-1.35-0.18-2.12-0.52-2.68-1.080-0.57-0.57-0.91-1.34-1.090-2.68-0.18-1.37-0.18-3.18-0.18-5.72v-1z"></path>
</symbol>
<symbol id="burger" viewBox="0 0 32 32">
<path d="M6.667 10.667c0-0.747 0.587-1.333 1.333-1.333h16c0.733 0 1.333 0.587 1.333 1.333 0 0.733-0.6 1.333-1.333 1.333h-16c-0.747 0-1.333-0.6-1.333-1.333zM6.667 16c0-0.747 0.587-1.333 1.333-1.333h16c0.733 0 1.333 0.587 1.333 1.333 0 0.733-0.6 1.333-1.333 1.333h-16c-0.747 0-1.333-0.6-1.333-1.333zM6.667 21.333c0-0.747 0.587-1.333 1.333-1.333h16c0.733 0 1.333 0.587 1.333 1.333 0 0.733-0.6 1.333-1.333 1.333h-16c-0.747 0-1.333-0.6-1.333-1.333z"></path>
</symbol>
<symbol id="close" viewBox="0 0 32 32">
<path d="M24.933 7.053c0.52 0.52 0.52 1.36 0 1.88l-7.053 7.067 7.053 7.053c0.52 0.52 0.52 1.36 0 1.88s-1.36 0.52-1.88 0l-7.053-7.053-7.067 7.053c-0.52 0.52-1.36 0.52-1.88 0s-0.52-1.36 0-1.88l7.053-7.053-7.053-7.067c-0.52-0.52-0.52-1.36 0-1.88s1.36-0.52 1.88 0l7.067 7.053 7.053-7.053c0.52-0.52 1.36-0.52 1.88 0z"></path>
</symbol>
<symbol id="filters" viewBox="0 0 32 32">
<path d="M26.816 24.176h-2.816c-0.48-1.712-2-2.848-3.888-2.848-2.24 0-4.112 1.824-4.112 4s1.872 4 4.112 4c1.888 0 3.408-1.152 3.888-2.864h2.816c0.704 0 1.184-0.56 1.184-1.136 0-0.688-0.48-1.152-1.184-1.152zM20.112 27.040c-0.944 0-1.76-0.8-1.76-1.712s0.816-1.712 1.76-1.712c0.944 0 1.76 0.8 1.76 1.712s-0.816 1.712-1.76 1.712z"></path>
<path d="M13.52 24h-8.4c-0.672 0-1.12 0.656-1.12 1.328 0 0.8 0.56 1.328 1.12 1.328h8.4c0.688 0 1.136-0.656 1.136-1.328 0-0.8-0.56-1.328-1.136-1.328z"></path>
<path d="M5.12 8h8.4c0.688 0 1.136-0.672 1.136-1.344 0-0.656-0.56-1.328-1.136-1.328h-8.4c-0.672 0-1.12 0.672-1.12 1.328 0 0.672 0.56 1.344 1.12 1.344z"></path>
<path d="M20.112 10.656c1.888 0 3.408-1.136 3.888-2.848h2.816c0.704 0 1.184-0.576 1.184-1.152s-0.592-1.136-1.184-1.136h-2.816c-0.48-1.712-2-2.864-3.888-2.864-2.24 0-4.112 1.824-4.112 4s1.872 4 4.112 4zM20.112 4.944c0.944 0 1.76 0.8 1.76 1.712s-0.816 1.712-1.76 1.712c-0.944 0-1.76-0.8-1.76-1.712s0.816-1.712 1.76-1.712z"></path>
<path d="M5.168 17.136h2.832c0.464 1.6 2 2.864 3.872 2.864 2.24 0 4.128-1.84 4.128-4 0-2.176-1.888-4-4.128-4-1.872 0-3.408 1.136-3.872 2.848h-2.832c-0.704 0-1.168 0.576-1.168 1.152 0 0.56 0.576 1.136 1.168 1.136zM11.872 14.272c0.944 0 1.76 0.8 1.76 1.728 0 0.912-0.816 1.712-1.76 1.712s-1.76-0.8-1.76-1.712c0-0.928 0.816-1.728 1.76-1.728z"></path>
<path d="M26.848 14.656h-8.368c-0.688 0-1.152 0.672-1.152 1.344 0 0.656 0.576 1.328 1.152 1.328h8.368c0.688 0 1.152-0.672 1.152-1.328 0-0.672-0.464-1.344-1.152-1.344z"></path>
</symbol>
<symbol id="no-results" viewBox="0 0 32 32">
<path d="M31.358 24.050h-3.54c0.227-0.393 0.34-0.837 0.34-1.282v-18.704c0-0.685-0.277-1.333-0.756-1.814-0.462-0.463-1.102-0.75-1.808-0.75-0.002 0-0.004 0-0.007 0h-15.345c-1.412 0.001-2.556 1.153-2.558 2.577v0.633h-1.915c-0.68 0-1.323 0.266-1.814 0.748-0.466 0.469-0.754 1.115-0.756 1.828v18.692c0 0.457 0.113 0.901 0.34 1.282h-2.897c-0.346 0.014-0.622 0.298-0.622 0.647s0.276 0.633 0.621 0.647l0.001 0h16.113l1.562 1.574c0.505 0.495 1.311 0.495 1.802 0 0.412-0.419 0.495-1.064 0.201-1.574h3.364c0.355-0.003 0.642-0.292 0.642-0.647 0-0.178-0.072-0.339-0.188-0.457l0 0c-0.112-0.117-0.27-0.19-0.445-0.19-0.003 0-0.006 0-0.009 0h-0.34c0.227-0.393 0.34-0.837 0.34-1.282v-0.647h7.672c0.164 0 0.328-0.064 0.454-0.19 0.126-0.128 0.189-0.28 0.189-0.457 0-0.165-0.063-0.33-0.189-0.457-0.114-0.11-0.269-0.177-0.44-0.177-0.005 0-0.009 0-0.014 0h0.001zM22.4 25.98c0 0.343-0.125 0.672-0.365 0.913-0.232 0.234-0.552 0.38-0.907 0.381h-2.029l-2.142-2.157c-0.328-0.33-0.794-0.457-1.235-0.33l-0.604-0.609c1.386-1.853 1.147-4.48-0.567-6.041-0.791-0.729-1.852-1.177-3.018-1.177-1.159 0-2.215 0.442-3.007 1.167l0.003-0.003c-1.714 1.561-1.966 4.175-0.593 6.040 0.694 0.94 1.731 1.593 2.923 1.773l0.025 0.003c0.197 0.031 0.424 0.049 0.656 0.049 1.008 0 1.938-0.338 2.681-0.907l-0.011 0.008 0.605 0.609c-0.114 0.445 0.012 0.927 0.328 1.244l0.327 0.33h-9.713c-0.705 0-1.272-0.584-1.272-1.294v-18.718c0-0.698 0.554-1.256 1.235-1.256h15.445c0.68 0 1.235 0.558 1.235 1.256v18.718zM13.783 23.759c-0.58 0.583-1.382 0.943-2.269 0.943-0.291 0-0.572-0.039-0.84-0.111l0.022 0.005c-1.109-0.291-1.966-1.168-2.268-2.284-0.068-0.247-0.106-0.532-0.106-0.825 0-0.891 0.358-1.698 0.939-2.284l-0 0c0.577-0.582 1.377-0.942 2.261-0.942s1.684 0.36 2.261 0.942l0 0c1.26 1.256 1.26 3.287 0 4.556zM26.885 22.77c0 0 0 0.001 0 0.002 0 0.707-0.567 1.281-1.271 1.292h-1.929v-16.776c0-0.685-0.277-1.332-0.756-1.814-0.462-0.462-1.101-0.748-1.806-0.748-0.003 0-0.005 0-0.008 0h-12.145v-0.647c0-0.001 0-0.002 0-0.003 0-0.707 0.567-1.281 1.271-1.292h15.371c0.706 0 1.273 0.571 1.273 1.295v18.692zM7.685 9.229c-0.355-0.003-0.642-0.291-0.643-0.647v-0c0-0.178 0.063-0.33 0.189-0.457 0.12-0.121 0.284-0.19 0.454-0.19h7.042c0.352 0 0.643 0.292 0.643 0.647s-0.29 0.647-0.643 0.647h-7.043zM12.17 14.382c0.165 0 0.328 0.076 0.454 0.19 0.126 0.127 0.19 0.292 0.19 0.457 0 0.178-0.063 0.33-0.19 0.457-0.12 0.121-0.283 0.19-0.454 0.19h-4.485c-0.176 0-0.327-0.076-0.454-0.19-0.117-0.117-0.189-0.278-0.189-0.457 0-0 0-0 0-0v0c0-0.178 0.063-0.33 0.189-0.457 0.12-0.122 0.283-0.191 0.454-0.191l4.485 0.001zM17.927 11.158c0.164 0 0.328 0.076 0.441 0.19 0.126 0.127 0.189 0.293 0.189 0.457 0 0.006 0 0.012 0 0.019 0 0.347-0.281 0.629-0.628 0.629-0.001 0-0.001 0-0.002 0h-10.242c-0.34 0-0.63-0.292-0.63-0.648-0-0.005-0-0.012-0-0.018 0-0.347 0.282-0.629 0.629-0.629 0 0 0.001 0 0.001 0h10.242z"></path>
</symbol>
<symbol id="icon-logo" viewBox="0 0 229 32">
<path d="M0.762 12.753v12.027h3.416l0.103-7.719 0.103-7.72 5.369 15.249h3.292l2.619-7.584c1.44-4.172 2.708-7.675 2.817-7.784s0.199 3.347 0.199 7.681v7.878h3.431v-24.053l-4.766 0.226-2.726 8.006c-1.498 4.403-2.825 8.35-2.948 8.768-0.147 0.504-1.243-2.22-3.223-8.005l-3-8.769-4.689-0.226v12.026zM48.036 1.119c-3.428 1.047-5.555 2.937-7.109 6.315-0.887 1.928-1.051 2.798-1.051 5.529 0 5.193 2.016 8.849 6.063 10.993 1.652 0.875 2.362 1.009 5.337 1.011 2.675 0.001 3.81-0.174 5.151-0.793 2.771-1.279 4.836-3.674 5.478-6.35 0.25-1.045 0.245-1.049-1.806-1.049-1.937 0-2.087 0.070-2.541 1.167-0.818 1.972-2.783 3.164-5.5 3.337-4.237 0.27-7.108-2.011-7.898-6.277-0.583-3.144 0.063-6.030 1.803-8.063 1.607-1.877 3.334-2.503 6.313-2.287 2.605 0.188 3.963 1.013 5.101 3.098 0.729 1.336 0.851 1.397 2.771 1.399 1.996 0.001 2.008-0.005 1.766-1.048-0.718-3.1-3.669-6.034-7.002-6.959-1.56-0.434-5.486-0.447-6.875-0.023zM179.454 1.687c-0.44 0.44-1.365 0.601-3.456 0.601-1.57 0-3.127 0.104-3.458 0.231-0.531 0.204-0.602 1.618-0.602 11.968 0 10.351 0.071 11.764 0.602 11.968 0.332 0.128 3.077 0.232 6.1 0.232 4.264 0 5.497 0.111 5.497 0.497 0 0.274 0.602 1.081 1.337 1.793 1.18 1.144 1.615 1.312 3.717 1.429 2.735 0.154 4.443-0.64 5.548-2.581l0.645-1.133 16.946-0.005 0.6 1.16c0.897 1.735 2.669 2.649 5.138 2.649s4.241-0.914 5.138-2.649c0.555-1.071 0.756-1.16 2.611-1.16 1.107 0 2.217-0.206 2.469-0.457 0.302-0.302 0.457-1.928 0.457-4.788v-4.329l-2.598-1.147c-2.062-0.911-2.929-1.569-4.194-3.191-0.877-1.124-1.595-2.131-1.595-2.239 0-0.109 0.73-0.251 1.62-0.315l1.62-0.117v-7.624l-16.372-0.1c-12.523-0.076-16.442-0.211-16.665-0.572-0.201-0.326-1.863-0.51-5.396-0.596-4.252-0.103-5.207-0.023-5.707 0.476zM221.879 6.291v2.097h-6.786c-4.769 0-6.921 0.135-7.243 0.457-0.326 0.326-0.457 2.686-0.457 8.196v7.739l-12.009-0.028-0.762-1.207c-0.42-0.663-1.318-1.528-1.996-1.922-2.604-1.516-6.892-0.488-8.085 1.937-0.327 0.663-0.719 1.208-0.872 1.212s-0.325-3.637-0.38-8.092l-0.103-8.102-8.959-0.215v-4.169h47.654v2.098zM27.079 15.475l3.004 8.994-0.596 1.49c-0.603 1.508-0.732 1.596-2.394 1.65-0.722 0.024-1.001 0.314-1.262 1.316-0.507 1.952-0.188 2.337 1.935 2.337 2.129 0 3.509-0.856 4.516-2.798 0.599-1.154 7.366-21.082 7.366-21.689 0-0.161-0.83-0.294-1.843-0.294h-1.843l-1.801 5.624c-2.072 7.021-2.754 9.081-3.446 11.137l1.443-4.942c-0.178 0.504-3.16-8.006-3.774-10.77-0.219-0.984-0.359-1.049-2.271-1.049h-2.037l3.003 8.994zM68.072 7.049c-1.967 0.702-3.292 1.715-4.145 3.17l-0.691 1.18 1.835 0.549c1.835 0.548 1.836 0.548 3.053-0.608 0.924-0.877 1.673-1.199 3.116-1.338 1.664-0.16 2.022-0.060 2.881 0.799 0.54 0.54 0.981 1.325 0.981 1.745 0 0.815 0.076 0.793-5.273 1.557-5.093 0.728-7.208 2.578-6.825 5.969 0.102 0.905 0.478 2.093 0.834 2.637 1.521 2.322 6.738 3.221 9.754 1.682 1.268-0.646 1.51-0.677 1.51-0.191 0 0.449 0.475 0.58 2.098 0.58h2.097v-5.7c0-7.175-0.391-9.144-2.116-10.658-2.174-1.908-5.99-2.483-9.109-1.372zM81.965 15.63v9.15h4.194v-6.408c0-5.912 0.059-6.473 0.773-7.239 1.358-1.458 3.777-1.572 5.109-0.239 0.498 0.498 0.599 1.714 0.599 7.243v6.644h4.193v-12.639l1.163-1.163c1.016-1.016 1.355-1.135 2.697-0.955 2.906 0.389 3.002 0.649 3.002 8.145v6.612h4.194l-0.002-6.195c-0.002-6.808-0.34-8.723-1.812-10.284-2.14-2.27-6.654-2.42-9.28-0.311l-1.46 1.173-0.603-0.922c-0.332-0.506-1.113-1.132-1.734-1.389-1.583-0.657-4.737-0.279-6.101 0.73l-1.119 0.827v-0.965c0-0.903-0.121-0.965-1.906-0.965h-1.907v9.15zM110.558 18.852v12.41h4.194v-8.030l1.119 0.828c1.24 0.916 4.134 1.345 6.316 0.935 1.799-0.338 4.299-2.61 5.268-4.791 1.747-3.924 0.673-9.332-2.349-11.828-2.554-2.11-6.78-2.483-9.134-0.806l-1.165 0.83-0.123-0.865c-0.107-0.755-0.376-0.878-2.124-0.979l-2.002-0.115v12.41zM135.238 6.94c-0.818 0.217-2.163 1.088-3.125 2.023-4.704 4.572-3.303 13.163 2.546 15.605 1.623 0.678 5.161 0.773 7.244 0.194 1.71-0.474 3.545-1.951 4.343-3.495 0.324-0.623 0.531-1.178 0.463-1.231-0.068-0.055-0.89-0.287-1.828-0.518-1.663-0.409-1.728-0.389-2.722 0.801-0.956 1.146-1.17 1.22-3.531 1.22-2.286 0-2.613-0.103-3.64-1.144-0.621-0.629-1.243-1.615-1.383-2.191l-0.255-1.049h13.862l-0.26-2.193c-0.772-6.513-5.416-9.695-11.714-8.023zM148.681 15.63v9.15h4.193v-12.257l1.115-1.115c0.965-0.965 1.399-1.114 3.24-1.114h2.126v-3.813h-1.732c-0.968 0-2.377 0.331-3.199 0.75-1.46 0.744-1.47 0.744-1.665 0-0.162-0.622-0.527-0.75-2.138-0.75h-1.941v9.15zM186.59 8.885c-0.108 0.282-0.147 2.129-0.085 4.105l0.11 3.592 8.768 0.108c4.823 0.059 9.16 0.012 9.639-0.105 0.846-0.207 0.869-0.327 0.763-4.11l-0.109-3.898-9.445-0.102c-7.623-0.082-9.483-0.002-9.641 0.41zM122.229 10.989c1.24 0.907 1.852 2.598 1.82 5.023-0.033 2.515-0.9 4.352-2.424 5.14-2.412 1.248-5.028 0.375-6.31-2.105-0.839-1.623-0.729-5.24 0.207-6.773 1.39-2.28 4.523-2.88 6.706-1.285zM140.066 10.444c1.287 0.538 2.515 1.901 2.515 2.793 0 0.369-1.114 0.487-4.563 0.487-4.181 0-4.543-0.056-4.326-0.667 0.382-1.074 1.371-2.068 2.599-2.611 1.479-0.652 2.219-0.653 3.775-0.002zM181.467 17.537v7.243h-7.243v-3.859c0-3.228 0.085-3.788 0.523-3.424 0.768 0.636 1.826 0.094 1.689-0.866-0.089-0.622-0.358-0.793-1.164-0.737l-1.048 0.071v-5.671h7.243v7.244zM194.811 12.39v2.097h-6.1v-4.193h6.1v2.097zM203.198 12.39v2.097h-5.719v-4.193h5.719v2.097zM212.347 12.39v2.097h-2.668v-4.193h2.668v2.097zM219.176 12.39l1.583 2.097h-6.505v-4.193h1.67c1.577 0 1.756 0.115 3.252 2.097zM224.497 17.207l1.957 0.813v6.76h-1.297c-1.074 0-1.431-0.225-2.071-1.311-0.985-1.67-2.767-2.59-5.020-2.59s-4.034 0.92-5.020 2.59c-0.64 1.086-0.997 1.311-2.069 1.311h-1.297v-8.386h6.43c5.698 0 6.652 0.092 8.388 0.813zM75.103 17.956c0 0.837-0.379 1.562-1.295 2.478-1.12 1.12-1.55 1.297-3.156 1.297-2.2 0-3.554-0.804-3.554-2.11 0-1.268 1.242-1.978 4.194-2.399 3.941-0.562 3.812-0.587 3.812 0.734zM192.428 23.825c1.108 1.288 1.088 2.553-0.062 3.889-0.755 0.878-1.229 1.070-2.638 1.070-3.477 0-4.969-3.236-2.465-5.344 1.022-0.859 1.471-0.993 2.764-0.819 1.018 0.136 1.833 0.545 2.401 1.204zM220.007 23.083c1.48 0.766 2.057 2.233 1.454 3.692-0.478 1.152-2.078 2.2-3.359 2.2-2.404 0-4.257-2.286-3.445-4.249 0.837-2.020 3.211-2.748 5.35-1.643zM218.193 25.762c-0.127 0.332 0.050 0.883 0.393 1.225 0.577 0.578 0.67 0.578 1.248 0 0.779-0.779 0.422-1.826-0.625-1.826-0.433 0-0.89 0.27-1.017 0.601z"></path>
</symbol>
</defs>
</svg>
