<svg aria-hidden="true" style="position: absolute; width: 0; height: 0; overflow: hidden;" version="1.1" xmlns="http://www.w3.org/2000/svg" xmlns:xlink="http://www.w3.org/1999/xlink">
<defs>
<symbol id="ac" viewBox="0 0 32 32">
<path d="M25 4c-1.33 0-2.6 0.52-3.54 1.46s-1.46 2.21-1.46 3.54c0 0.26-0.11 0.51-0.3 0.7s-0.44 0.3-0.7 0.3c-0.27 0-0.52-0.11-0.71-0.3s-0.29-0.44-0.29-0.7c0-1.39 0.41-2.74 1.17-3.89 0.77-1.16 1.87-2.050 3.15-2.58s2.68-0.67 4.040-0.4c1.36 0.27 2.61 0.94 3.58 1.92 0.98 0.97 1.65 2.22 1.92 3.58s0.13 2.76-0.4 4.040c-0.53 1.28-1.42 2.38-2.58 3.15-1.15 0.76-2.5 1.18-3.88 1.18h-24c-0.27 0-0.52-0.11-0.71-0.3s-0.29-0.44-0.29-0.7c0-0.27 0.1-0.52 0.29-0.71s0.44-0.29 0.71-0.29h24c1.32 0 2.59-0.53 3.53-1.47s1.47-2.21 1.47-3.53c0-1.33-0.53-2.6-1.47-3.54s-2.21-1.46-3.53-1.46zM11 6c-0.54 0-1.040 0.21-1.42 0.58-0.37 0.38-0.58 0.88-0.58 1.42 0 0.26-0.11 0.51-0.3 0.7s-0.44 0.3-0.7 0.3c-0.27 0-0.52-0.11-0.71-0.3s-0.29-0.44-0.29-0.7c0-0.8 0.23-1.57 0.67-2.23s1.060-1.17 1.79-1.47c0.74-0.3 1.54-0.38 2.32-0.23 0.77 0.16 1.48 0.54 2.040 1.1s0.94 1.27 1.1 2.040c0.15 0.78 0.070 1.58-0.23 2.32-0.3 0.73-0.81 1.35-1.47 1.79s-1.43 0.68-2.22 0.68h-10c-0.27 0-0.52-0.11-0.71-0.3s-0.29-0.44-0.29-0.7c0-0.27 0.1-0.52 0.29-0.71s0.44-0.29 0.71-0.29h10c0.53 0 1.030-0.22 1.41-0.59 0.37-0.38 0.59-0.88 0.59-1.41 0-0.54-0.22-1.040-0.59-1.42-0.38-0.37-0.88-0.58-1.41-0.58zM0 19c0-0.27 0.1-0.52 0.29-0.71s0.44-0.29 0.71-0.29h20.080c1.19 0 2.35 0.35 3.33 1.010 0.99 0.66 1.76 1.59 2.21 2.69 0.46 1.1 0.58 2.3 0.34 3.47-0.23 1.16-0.8 2.23-1.64 3.070s-1.91 1.41-3.070 1.64c-1.16 0.23-2.37 0.11-3.47-0.34-1.090-0.46-2.030-1.22-2.69-2.21s-1.010-2.15-1.010-3.33c0-0.27 0.1-0.52 0.29-0.71s0.44-0.29 0.71-0.29c0.26 0 0.52 0.1 0.71 0.29 0.18 0.19 0.29 0.44 0.29 0.71 0 0.79 0.23 1.56 0.67 2.22s1.070 1.17 1.8 1.47c0.73 0.3 1.53 0.38 2.31 0.23 0.78-0.16 1.49-0.54 2.050-1.1s0.94-1.27 1.090-2.040c0.16-0.78 0.080-1.58-0.23-2.32-0.3-0.73-0.81-1.35-1.47-1.79s-1.43-0.67-2.22-0.67h-20.080c-0.27 0-0.52-0.11-0.71-0.3s-0.29-0.44-0.29-0.7z"></path>
</symbol>
<symbol id="alcove" viewBox="0 0 32 32">
<path d="M8 4v4h-4v-4h4zM10 28v-4c0-0.54-0.22-1.040-0.59-1.42-0.38-0.37-0.88-0.58-1.41-0.58h-4c-0.54 0-1.040 0.21-1.42 0.58-0.37 0.38-0.58 0.88-0.58 1.42v4c0 0.53 0.21 1.030 0.58 1.41 0.38 0.37 0.88 0.59 1.42 0.59h4c0.53 0 1.030-0.22 1.41-0.59 0.37-0.38 0.59-0.88 0.59-1.41zM10 18v-4c0-0.54-0.22-1.040-0.59-1.42-0.38-0.37-0.88-0.58-1.41-0.58h-4c-0.54 0-1.040 0.21-1.42 0.58-0.37 0.38-0.58 0.88-0.58 1.42v4c0 0.53 0.21 1.030 0.58 1.41 0.38 0.37 0.88 0.59 1.42 0.59h4c0.53 0 1.030-0.22 1.41-0.59 0.37-0.38 0.59-0.88 0.59-1.41zM10 8v-4c0-0.54-0.22-1.040-0.59-1.42-0.38-0.37-0.88-0.58-1.41-0.58h-4c-0.54 0-1.040 0.21-1.42 0.58-0.37 0.38-0.58 0.88-0.58 1.42v4c0 0.53 0.21 1.030 0.58 1.41 0.38 0.37 0.88 0.59 1.42 0.59h4c0.53 0 1.030-0.22 1.41-0.59 0.37-0.38 0.59-0.88 0.59-1.41zM20 28v-4c0-0.54-0.22-1.040-0.59-1.42-0.38-0.37-0.88-0.58-1.41-0.58h-4c-0.54 0-1.040 0.21-1.42 0.58-0.37 0.38-0.58 0.88-0.58 1.42v4c0 0.53 0.21 1.030 0.58 1.41 0.38 0.37 0.88 0.59 1.42 0.59h4c0.53 0 1.030-0.22 1.41-0.59 0.37-0.38 0.59-0.88 0.59-1.41zM20 18v-4c0-0.54-0.22-1.040-0.59-1.42-0.38-0.37-0.88-0.58-1.41-0.58h-4c-0.54 0-1.040 0.21-1.42 0.58-0.37 0.38-0.58 0.88-0.58 1.42v4c0 0.53 0.21 1.030 0.58 1.41 0.38 0.37 0.88 0.59 1.42 0.59h4c0.53 0 1.030-0.22 1.41-0.59 0.37-0.38 0.59-0.88 0.59-1.41zM20 8v-4c0-0.54-0.22-1.040-0.59-1.42-0.38-0.37-0.88-0.58-1.41-0.58h-4c-0.54 0-1.040 0.21-1.42 0.58-0.37 0.38-0.58 0.88-0.58 1.42v4c0 0.53 0.21 1.030 0.58 1.41 0.38 0.37 0.88 0.59 1.42 0.59h4c0.53 0 1.030-0.22 1.41-0.59 0.37-0.38 0.59-0.88 0.59-1.41zM18 4v4h-4v-4h4zM28 4v4h-4v-4h4zM8 14v4h-4v-4h4zM18 14v4h-4v-4h4zM28 14h-4v4h4v-4zM8 24v4h-4v-4h4zM18 24v4h-4v-4h4zM28 24v4h-4v-4h4zM24 2c-0.54 0-1.040 0.21-1.42 0.58-0.37 0.38-0.58 0.88-0.58 1.42v4c0 0.53 0.21 1.030 0.58 1.41 0.38 0.37 0.88 0.59 1.42 0.59h4c0.53 0 1.030-0.22 1.41-0.59 0.37-0.38 0.59-0.88 0.59-1.41v-4c0-0.54-0.22-1.040-0.59-1.42-0.38-0.37-0.88-0.58-1.41-0.58h-4zM22 14c0-0.54 0.21-1.040 0.58-1.42 0.38-0.37 0.88-0.58 1.42-0.58h4c0.53 0 1.030 0.21 1.41 0.58 0.37 0.38 0.59 0.88 0.59 1.42v4c0 0.53-0.22 1.030-0.59 1.41-0.38 0.37-0.88 0.59-1.41 0.59h-4c-0.54 0-1.040-0.22-1.42-0.59-0.37-0.38-0.58-0.88-0.58-1.41v-4zM24 22c-0.54 0-1.040 0.21-1.42 0.58-0.37 0.38-0.58 0.88-0.58 1.42v4c0 0.53 0.21 1.030 0.58 1.41 0.38 0.37 0.88 0.59 1.42 0.59h4c0.53 0 1.030-0.22 1.41-0.59 0.37-0.38 0.59-0.88 0.59-1.41v-4c0-0.54-0.22-1.040-0.59-1.42-0.38-0.37-0.88-0.58-1.41-0.58h-4z"></path>
</symbol>
<symbol id="bathroom" viewBox="0 0 32 32">
<path d="M14.42 1.59c0.96-1 1.58-1.59 1.58-1.59 0.21 0.72 0.46 1.41 0.74 2.070 1.62 3.89 4.14 6.7 6.39 9.2 2.62 2.92 4.87 5.42 4.87 8.73 0 3.18-1.27 6.23-3.52 8.48s-5.3 3.52-8.48 3.52c-3.19 0-6.24-1.27-8.49-3.52s-3.51-5.3-3.51-8.48c0-6.67 7.16-14.97 10.42-18.41zM15.24 3.64c-1.28 1.39-2.5 2.83-3.66 4.33-1.45 1.91-2.87 4.020-3.92 6.15-1.060 2.14-1.66 4.15-1.66 5.88 0 2.65 1.050 5.19 2.92 7.070 1.88 1.87 4.42 2.93 7.080 2.93 2.65 0 5.19-1.060 7.070-2.93 1.87-1.88 2.93-4.42 2.93-7.070 0-2.41-1.6-4.32-4.37-7.4l-0.060-0.070c-2.070-2.31-4.57-5.090-6.33-8.89z"></path>
<path d="M9.1 15.55c1.64-3.28 3.44-5.51 4.19-6.26l1.41 1.41c-0.58 0.58-2.25 2.63-3.81 5.74l-1.79-0.89z"></path>
</symbol>
<symbol id="engine" viewBox="0 0 32 32">
<path d="M6 4.992c0-0.272 0.096-0.512 0.288-0.704s0.432-0.288 0.704-0.288h10c0.272 0 0.512 0.096 0.704 0.288s0.304 0.432 0.304 0.704v10c0 0.272-0.112 0.512-0.304 0.704s-0.432 0.304-0.704 0.304h-10c-0.272 0-0.512-0.112-0.704-0.304s-0.288-0.432-0.288-0.704v-10z"></path>
<path d="M2 4c0-1.072 0.416-2.080 1.168-2.832s1.76-1.168 2.832-1.168h12c1.056 0 2.064 0.416 2.816 1.168s1.184 1.76 1.184 2.832v16c1.056 0 2.064 0.416 2.816 1.168s1.184 1.76 1.184 2.832v0.992c0 0.272 0.096 0.512 0.288 0.704s0.432 0.304 0.704 0.304c0.272 0 0.512-0.112 0.704-0.304s0.304-0.432 0.304-0.704v-8.992h-1.008c-0.272 0-0.512-0.112-0.704-0.304s-0.288-0.432-0.288-0.704v-6.256c0-0.256 0.096-0.512 0.288-0.704s0.432-0.288 0.704-0.288h2.992c-0.016-0.96-0.112-1.792-0.4-2.448-0.16-0.384-0.432-0.704-0.784-0.912-0.368-0.224-0.928-0.384-1.808-0.384-0.272 0-0.512-0.112-0.704-0.304s-0.288-0.432-0.288-0.704c0-0.272 0.096-0.512 0.288-0.704s0.432-0.288 0.704-0.288c1.136-0.016 2.064 0.208 2.832 0.656 0.752 0.464 1.264 1.104 1.584 1.824 0.592 1.312 0.592 2.928 0.592 4.16v6.352c0 0.128-0.032 0.256-0.080 0.384-0.048 0.112-0.128 0.224-0.224 0.32s-0.192 0.176-0.32 0.224c-0.128 0.048-0.256 0.080-0.384 0.080h-0.992v8.992c0 0.8-0.32 1.552-0.88 2.128-0.576 0.56-1.328 0.88-2.128 0.88s-1.552-0.32-2.128-0.88c-0.56-0.576-0.864-1.328-0.864-2.128v-0.992c0-0.544-0.224-1.040-0.592-1.424-0.384-0.368-0.88-0.576-1.408-0.576v8h0.992c0.272 0 0.512 0.096 0.704 0.288s0.304 0.432 0.304 0.704c0 0.272-0.112 0.512-0.304 0.704s-0.432 0.304-0.704 0.304h-22c-0.272 0-0.512-0.112-0.704-0.304s-0.288-0.432-0.288-0.704c0-0.272 0.096-0.512 0.288-0.704s0.432-0.288 0.704-0.288h1.008v-26zM20 4c0-0.544-0.224-1.040-0.592-1.424-0.384-0.368-0.88-0.576-1.408-0.576h-12c-0.544 0-1.040 0.208-1.424 0.576-0.368 0.384-0.576 0.88-0.576 1.424v26h16v-26z"></path>
</symbol>
<symbol id="fullyIntegrated" viewBox="0 0 32 32">
<path d="M2 5c0-0.8 0.31-1.56 0.87-2.13 0.57-0.56 1.33-0.87 2.13-0.87h6c0.79 0 1.55 0.31 2.12 0.87 0.56 0.57 0.88 1.33 0.88 2.13v6c0 0.79-0.32 1.55-0.88 2.12-0.57 0.56-1.33 0.88-2.12 0.88h-6c-0.8 0-1.56-0.32-2.13-0.88-0.56-0.57-0.87-1.33-0.87-2.12v-6zM5 4c-0.27 0-0.52 0.1-0.71 0.29s-0.29 0.44-0.29 0.71v6c0 0.26 0.1 0.51 0.29 0.7s0.44 0.3 0.71 0.3h6c0.26 0 0.51-0.11 0.7-0.3s0.3-0.44 0.3-0.7v-6c0-0.27-0.11-0.52-0.3-0.71s-0.44-0.29-0.7-0.29h-6zM18 5c0-0.8 0.31-1.56 0.87-2.13 0.57-0.56 1.33-0.87 2.13-0.87h6c0.79 0 1.55 0.31 2.12 0.87 0.56 0.57 0.88 1.33 0.88 2.13v6c0 0.79-0.32 1.55-0.88 2.12-0.57 0.56-1.33 0.88-2.12 0.88h-6c-0.8 0-1.56-0.32-2.13-0.88-0.56-0.57-0.87-1.33-0.87-2.12v-6zM21 4c-0.27 0-0.52 0.1-0.71 0.29s-0.29 0.44-0.29 0.71v6c0 0.26 0.1 0.51 0.29 0.7s0.44 0.3 0.71 0.3h6c0.26 0 0.51-0.11 0.7-0.3s0.3-0.44 0.3-0.7v-6c0-0.27-0.11-0.52-0.3-0.71s-0.44-0.29-0.7-0.29h-6zM2 21c0-0.8 0.31-1.56 0.87-2.13 0.57-0.56 1.33-0.87 2.13-0.87h6c0.79 0 1.55 0.31 2.12 0.87 0.56 0.57 0.88 1.33 0.88 2.13v6c0 0.79-0.32 1.55-0.88 2.12-0.57 0.56-1.33 0.88-2.12 0.88h-6c-0.8 0-1.56-0.32-2.13-0.88-0.56-0.57-0.87-1.33-0.87-2.12v-6zM5 20c-0.27 0-0.52 0.1-0.71 0.29s-0.29 0.44-0.29 0.71v6c0 0.26 0.1 0.51 0.29 0.7s0.44 0.3 0.71 0.3h6c0.26 0 0.51-0.11 0.7-0.3s0.3-0.44 0.3-0.7v-6c0-0.27-0.11-0.52-0.3-0.71s-0.44-0.29-0.7-0.29h-6zM18 21c0-0.8 0.31-1.56 0.87-2.13 0.57-0.56 1.33-0.87 2.13-0.87h6c0.79 0 1.55 0.31 2.12 0.87 0.56 0.57 0.88 1.33 0.88 2.13v6c0 0.79-0.32 1.55-0.88 2.12-0.57 0.56-1.33 0.88-2.12 0.88h-6c-0.8 0-1.56-0.32-2.13-0.88-0.56-0.57-0.87-1.33-0.87-2.12v-6zM21 20c-0.27 0-0.52 0.1-0.71 0.29s-0.29 0.44-0.29 0.71v6c0 0.26 0.1 0.51 0.29 0.7s0.44 0.3 0.71 0.3h6c0.26 0 0.51-0.11 0.7-0.3s0.3-0.44 0.3-0.7v-6c0-0.27-0.11-0.52-0.3-0.71s-0.44-0.29-0.7-0.29h-6z"></path>
</symbol>
<symbol id="heart" viewBox="0 0 32 32">
<path d="M16 13.133l-1.8-3.573c-0.44-0.893-1.213-2.16-2.293-3.2-1.080-1.013-2.36-1.693-3.907-1.693-3.36 0-6 2.64-6 5.84 0 2.413 1.107 4.12 3.733 6.733 0.667 0.667 1.44 1.387 2.293 2.187 2.213 2.080 4.973 4.667 7.973 8.133 3-3.467 5.747-6.053 7.96-8.133 0.853-0.8 1.627-1.52 2.293-2.187 2.627-2.613 3.747-4.32 3.747-6.733 0-3.2-2.653-5.84-6-5.84-1.56 0-2.84 0.68-3.92 1.693-1.080 1.040-1.853 2.307-2.293 3.2l-1.787 3.573zM16.773 29.72c-0.093 0.107-0.213 0.2-0.347 0.267s-0.28 0.093-0.427 0.093c-0.16 0-0.307-0.027-0.44-0.093s-0.253-0.16-0.347-0.267c-3.2-3.813-6.107-6.533-8.493-8.76-4.12-3.88-6.72-6.32-6.72-10.453 0-4.333 3.573-7.84 8-7.84 3.187 0 5.427 2.093 6.8 4.013 0.52 0.72 0.92 1.427 1.2 1.987 0.333-0.693 0.733-1.36 1.187-1.987 1.373-1.92 3.613-4.013 6.813-4.013 4.413 0 8 3.507 8 7.84 0 4.133-2.6 6.573-6.733 10.453-2.387 2.24-5.293 4.96-8.493 8.76z"></path>
</symbol>
<symbol id="kitchen" viewBox="0 0 32 32">
<path d="M0.99 12c-0.14 0-0.29 0.030-0.43 0.090-0.13 0.070-0.25 0.16-0.34 0.28-0.1 0.12-0.16 0.25-0.2 0.4-0.030 0.14-0.030 0.29 0 0.44l3.3 14.87c0.25 1.11 0.87 2.1 1.75 2.81 0.89 0.72 2 1.1 3.13 1.11h11.59c1.13-0.010 2.24-0.39 3.13-1.11 0.88-0.71 1.5-1.7 1.75-2.81l0.26-1.18c1.53 0.29 3.11-0.030 4.41-0.89s2.21-2.19 2.55-3.71c0.34-1.52 0.070-3.11-0.74-4.44-0.82-1.32-2.11-2.28-3.62-2.67l0.44-1.98c0.030-0.15 0.030-0.3 0-0.44-0.040-0.15-0.1-0.28-0.2-0.4-0.090-0.12-0.21-0.21-0.34-0.28-0.14-0.060-0.29-0.090-0.43-0.090h-26.010zM26 25c-0.22 0-0.43-0.020-0.64-0.050l1.74-7.8c0.92 0.27 1.72 0.86 2.24 1.67 0.53 0.81 0.74 1.78 0.61 2.73-0.14 0.95-0.61 1.83-1.34 2.46-0.72 0.63-1.65 0.98-2.61 0.99zM5.27 27.65l-3.030-13.65h23.51l-3.030 13.65c-0.15 0.66-0.52 1.26-1.060 1.68-0.53 0.43-1.19 0.66-1.87 0.67h-11.59c-0.68-0.010-1.34-0.24-1.87-0.67-0.54-0.42-0.91-1.020-1.060-1.68z"></path>
<path d="M8.8 1.6h-0.010l-0.030 0.040c-0.14 0.2-0.28 0.41-0.41 0.62-0.1 0.17-0.2 0.35-0.28 0.54-0.050 0.12-0.070 0.18-0.070 0.2v0.010c0.020 0.18 0.080 0.35 0.18 0.5 0.15 0.26 0.35 0.54 0.62 0.89l0.020 0.020c0.23 0.32 0.52 0.69 0.74 1.090s0.44 0.91 0.44 1.49c0 0.37-0.13 0.73-0.24 0.98-0.12 0.27-0.25 0.53-0.41 0.78-0.15 0.26-0.32 0.52-0.5 0.76l-0.040 0.050-0.010 0.020c-0.16 0.22-0.4 0.36-0.66 0.39-0.26 0.040-0.53-0.030-0.74-0.18-0.22-0.16-0.36-0.4-0.39-0.66-0.040-0.27 0.030-0.53 0.19-0.74v-0.010l0.030-0.040c0.14-0.2 0.28-0.41 0.41-0.62 0.1-0.17 0.2-0.35 0.28-0.53 0.050-0.12 0.070-0.19 0.070-0.21-0.020-0.18-0.080-0.35-0.18-0.5-0.18-0.32-0.39-0.61-0.61-0.89l-0.030-0.030c-0.27-0.34-0.51-0.71-0.73-1.080-0.28-0.46-0.43-0.97-0.44-1.49 0-0.38 0.13-0.74 0.23-0.99 0.12-0.28 0.27-0.55 0.41-0.78 0.16-0.26 0.32-0.51 0.5-0.76l0.050-0.070c0.16-0.22 0.4-0.36 0.66-0.39 0.26-0.040 0.53 0.030 0.74 0.19 0.22 0.15 0.36 0.39 0.39 0.65 0.040 0.27-0.030 0.53-0.18 0.75zM14.8 1.6h-0.010l-0.030 0.040c-0.14 0.2-0.28 0.41-0.41 0.62-0.1 0.17-0.2 0.35-0.28 0.54-0.050 0.12-0.070 0.18-0.070 0.2v0.010c0.020 0.18 0.080 0.35 0.18 0.5 0.15 0.26 0.36 0.54 0.62 0.89l0.020 0.020c0.23 0.32 0.52 0.69 0.74 1.090s0.44 0.91 0.44 1.49c0 0.37-0.13 0.73-0.24 0.98-0.12 0.27-0.25 0.53-0.41 0.78-0.15 0.26-0.32 0.52-0.5 0.76l-0.040 0.050-0.010 0.020c-0.16 0.22-0.4 0.36-0.66 0.39-0.26 0.040-0.53-0.030-0.74-0.18-0.22-0.16-0.36-0.4-0.39-0.66-0.040-0.27 0.030-0.53 0.19-0.74v-0.010l0.030-0.040c0.14-0.2 0.28-0.41 0.41-0.62 0.1-0.17 0.2-0.35 0.28-0.53 0.050-0.12 0.070-0.19 0.070-0.21-0.020-0.18-0.080-0.35-0.18-0.5-0.18-0.32-0.39-0.61-0.61-0.89l-0.020-0.030c-0.28-0.34-0.52-0.71-0.74-1.080-0.28-0.46-0.43-0.97-0.44-1.49 0-0.38 0.13-0.74 0.23-0.99 0.12-0.28 0.27-0.55 0.41-0.78 0.16-0.26 0.32-0.51 0.5-0.76l0.050-0.070c0.16-0.22 0.4-0.36 0.66-0.39 0.26-0.040 0.53 0.030 0.74 0.19 0.22 0.15 0.36 0.39 0.39 0.65 0.040 0.27-0.030 0.53-0.18 0.75zM20.8 1.6h-0.010l-0.030 0.040c-0.14 0.2-0.28 0.41-0.41 0.62-0.1 0.17-0.2 0.35-0.28 0.54-0.050 0.12-0.070 0.18-0.070 0.2v0.010c0.020 0.18 0.080 0.35 0.18 0.5 0.15 0.26 0.36 0.54 0.62 0.89l0.020 0.020c0.23 0.32 0.52 0.69 0.74 1.090s0.44 0.91 0.44 1.49c0 0.37-0.13 0.73-0.24 0.98-0.12 0.27-0.25 0.53-0.41 0.78-0.15 0.26-0.32 0.52-0.5 0.76l-0.040 0.050-0.010 0.020c-0.16 0.22-0.4 0.36-0.66 0.39-0.26 0.040-0.53-0.030-0.74-0.18-0.22-0.16-0.36-0.4-0.39-0.66-0.040-0.27 0.030-0.53 0.19-0.74v-0.010l0.030-0.040c0.14-0.2 0.28-0.41 0.41-0.62 0.1-0.17 0.2-0.35 0.28-0.53 0.050-0.12 0.070-0.19 0.070-0.21-0.020-0.18-0.080-0.35-0.18-0.5-0.18-0.32-0.39-0.61-0.61-0.89l-0.020-0.030c-0.28-0.34-0.52-0.71-0.74-1.080-0.28-0.46-0.43-0.97-0.44-1.49 0-0.38 0.12-0.74 0.23-0.99 0.12-0.28 0.27-0.55 0.41-0.78 0.16-0.26 0.32-0.51 0.5-0.76l0.050-0.070c0.16-0.22 0.4-0.36 0.66-0.39 0.26-0.040 0.53 0.030 0.74 0.19 0.22 0.15 0.36 0.39 0.39 0.65 0.040 0.27-0.030 0.53-0.18 0.75z"></path>
</symbol>
<symbol id="map" viewBox="0 0 32 32">
<path d="M31.632 0.224c0.112 0.080 0.208 0.208 0.272 0.336 0.048 0.144 0.096 0.288 0.096 0.432v28c-0.016 0.224-0.096 0.448-0.24 0.64-0.144 0.176-0.352 0.288-0.576 0.336l-10 2c-0.128 0.032-0.256 0.032-0.384 0l-9.808-1.952-9.808 1.952c-0.144 0.032-0.288 0.032-0.432 0-0.144-0.048-0.272-0.112-0.4-0.208-0.112-0.096-0.208-0.208-0.256-0.336-0.064-0.144-0.096-0.288-0.096-0.432v-28c0-0.224 0.080-0.448 0.224-0.64 0.144-0.176 0.352-0.288 0.576-0.336l10-2c0.128-0.032 0.256-0.032 0.384 0l9.808 1.952 9.808-1.952c0.144-0.032 0.288-0.032 0.432 0 0.144 0.048 0.272 0.112 0.4 0.208zM20 3.808l-8-1.6v25.968l8 1.6v-25.968zM22 29.776l8-1.6v-25.968l-8 1.6v25.968zM10 28.176v-25.968l-8 1.6v25.968l8-1.6z"></path>
</symbol>
<symbol id="people" viewBox="0 0 32 32">
<path d="M30 28c0 0 2 0 2-2s-2-8-10-8c-8 0-10 6-10 8s2 2 2 2h16zM14.032 26l-0.032-0.016c0-0.528 0.32-2.064 1.52-3.44 1.104-1.296 3.040-2.544 6.48-2.544 3.424 0 5.36 1.248 6.464 2.544 1.2 1.376 1.52 2.912 1.536 3.44h-0.016l-0.032 0.016h-15.92zM22 14c1.056 0 2.064-0.432 2.816-1.184s1.184-1.76 1.184-2.816c0-1.072-0.432-2.080-1.184-2.832s-1.76-1.168-2.816-1.168c-1.072 0-2.080 0.416-2.832 1.168s-1.168 1.76-1.168 2.832c0 1.056 0.416 2.064 1.168 2.816s1.76 1.184 2.832 1.184zM28 10c0 0.784-0.16 1.568-0.464 2.288-0.304 0.736-0.752 1.392-1.296 1.952-0.56 0.544-1.216 0.992-1.952 1.296-0.72 0.304-1.504 0.464-2.288 0.464-0.8 0-1.584-0.16-2.304-0.464s-1.392-0.752-1.952-1.296c-0.544-0.56-0.992-1.216-1.296-1.952-0.304-0.72-0.448-1.504-0.448-2.288 0-1.6 0.624-3.12 1.744-4.256 1.136-1.12 2.656-1.744 4.256-1.744 1.584 0 3.104 0.624 4.24 1.744 1.12 1.136 1.76 2.656 1.76 4.256zM13.872 18.56c-0.816-0.256-1.632-0.416-2.464-0.496-0.48-0.048-0.944-0.080-1.408-0.064-8 0-10 6-10 8 0 1.328 0.656 2 2 2h8.416c-0.288-0.64-0.432-1.312-0.416-2 0-2.032 0.752-4.096 2.176-5.808 0.48-0.592 1.040-1.152 1.696-1.632zM9.824 20c-1.168 1.776-1.808 3.856-1.824 6h-6c0-0.528 0.32-2.064 1.52-3.456 1.088-1.264 2.976-2.512 6.304-2.544v0zM2.992 10.992c0-1.584 0.64-3.12 1.76-4.24s2.656-1.76 4.24-1.76c1.584 0 3.12 0.64 4.24 1.76s1.76 2.656 1.76 4.24c0 1.584-0.64 3.12-1.76 4.24s-2.656 1.76-4.24 1.76c-1.584 0-3.12-0.64-4.24-1.76s-1.76-2.656-1.76-4.24zM8.992 6.992c-1.056 0-2.080 0.416-2.832 1.168s-1.168 1.776-1.168 2.832c0 1.056 0.416 2.080 1.168 2.832s1.776 1.168 2.832 1.168c1.056 0 2.080-0.416 2.832-1.168s1.168-1.776 1.168-2.832c0-1.056-0.416-2.080-1.168-2.832s-1.776-1.168-2.832-1.168z"></path>
</symbol>
<symbol id="radio" viewBox="0 0 32 32">
<path d="M14 4.992c0-0.272 0.096-0.512 0.288-0.704s0.432-0.288 0.704-0.288h14c0.272 0 0.512 0.096 0.704 0.288s0.304 0.432 0.304 0.704v2c0 0.272-0.112 0.512-0.304 0.704s-0.432 0.304-0.704 0.304h-14c-0.272 0-0.512-0.112-0.704-0.304s-0.288-0.432-0.288-0.704v-2zM0 24c0-1.6 0.624-3.12 1.744-4.256 1.136-1.12 2.656-1.744 4.256-1.744 1.584 0 3.104 0.624 4.24 1.744 1.12 1.136 1.76 2.656 1.76 4.256 0 1.584-0.64 3.104-1.76 4.24-1.136 1.12-2.656 1.76-4.24 1.76-1.6 0-3.12-0.64-4.256-1.76-1.12-1.136-1.744-2.656-1.744-4.24zM14 20.992c0-0.272 0.096-0.512 0.288-0.704s0.432-0.288 0.704-0.288h14c0.272 0 0.512 0.096 0.704 0.288s0.304 0.432 0.304 0.704v2c0 0.272-0.112 0.512-0.304 0.704s-0.432 0.304-0.704 0.304h-14c-0.272 0-0.512-0.112-0.704-0.304s-0.288-0.432-0.288-0.704v-2zM14 10.992c0-0.272 0.096-0.512 0.288-0.704s0.432-0.288 0.704-0.288h10c0.272 0 0.512 0.096 0.704 0.288s0.304 0.432 0.304 0.704c0 0.272-0.112 0.512-0.304 0.704s-0.432 0.304-0.704 0.304h-10c-0.272 0-0.512-0.112-0.704-0.304s-0.288-0.432-0.288-0.704zM14 26.992c0-0.272 0.096-0.512 0.288-0.704s0.432-0.288 0.704-0.288h10c0.272 0 0.512 0.096 0.704 0.288s0.304 0.432 0.304 0.704c0 0.272-0.112 0.512-0.304 0.704s-0.432 0.304-0.704 0.304h-10c-0.272 0-0.512-0.112-0.704-0.304s-0.288-0.432-0.288-0.704zM6 2c-0.8 0-1.584 0.144-2.304 0.448-0.736 0.304-1.392 0.752-1.952 1.296-0.544 0.56-0.992 1.216-1.296 1.952-0.304 0.72-0.448 1.504-0.448 2.304 0 0.784 0.144 1.568 0.448 2.288 0.304 0.736 0.752 1.392 1.296 1.952 0.56 0.544 1.216 0.992 1.952 1.296 0.72 0.304 1.504 0.464 2.304 0.464 1.584 0 3.104-0.64 4.24-1.76 1.12-1.136 1.76-2.656 1.76-4.24 0-1.6-0.64-3.12-1.76-4.256-1.136-1.12-2.656-1.744-4.24-1.744zM6 10.992c-0.8 0-1.568-0.32-2.128-0.88s-0.88-1.328-0.88-2.112c0-0.8 0.32-1.568 0.88-2.128s1.328-0.88 2.128-0.88c0.784 0 1.552 0.32 2.112 0.88s0.88 1.328 0.88 2.128c0 0.784-0.32 1.552-0.88 2.112s-1.328 0.88-2.112 0.88z"></path>
</symbol>
<symbol id="star" viewBox="0 0 32 32">
<path d="M15.1 1.66l-3.78 7.16c-0.14 0.28-0.4 0.46-0.7 0.52l-7.98 1.38c-0.8 0.14-1.1 1.1-0.54 1.68l5.64 5.8c0.22 0.24 0.32 0.54 0.26 0.84l-1.14 8.020c-0.12 0.8 0.7 1.4 1.42 1.040l7.26-3.58c0.28-0.12 0.62-0.12 0.9 0l7.26 3.58c0.72 0.36 1.54-0.24 1.42-1.040l-1.14-8.020c-0.060-0.3 0.040-0.6 0.26-0.84l5.64-5.8c0.56-0.58 0.26-1.54-0.54-1.68l-7.98-1.38c-0.3-0.060-0.56-0.24-0.7-0.52l-3.78-7.16c-0.38-0.7-1.4-0.7-1.78 0z"></path>
</symbol>
<symbol id="transmission" viewBox="0 0 32 32">
<path d="M12 7c0-0.8 0.31-1.56 0.87-2.13 0.57-0.56 1.33-0.87 2.13-0.87h2c0.79 0 1.55 0.31 2.12 0.87 0.56 0.57 0.88 1.33 0.88 2.13v2c0 0.79-0.32 1.55-0.88 2.12-0.57 0.56-1.33 0.88-2.12 0.88v2h11c0.26 0 0.51 0.1 0.7 0.29s0.3 0.44 0.3 0.71v2c0 0.26-0.11 0.51-0.3 0.7s-0.44 0.3-0.7 0.3c-0.27 0-0.52-0.11-0.71-0.3s-0.29-0.44-0.29-0.7v-1h-10v1c0 0.26-0.11 0.51-0.3 0.7s-0.44 0.3-0.7 0.3c-0.27 0-0.52-0.11-0.71-0.3s-0.29-0.44-0.29-0.7v-1h-10v1c0 0.26-0.11 0.51-0.3 0.7s-0.44 0.3-0.7 0.3c-0.27 0-0.52-0.11-0.71-0.3s-0.29-0.44-0.29-0.7v-2c0-0.27 0.1-0.52 0.29-0.71s0.44-0.29 0.71-0.29h11v-2c-0.8 0-1.56-0.32-2.13-0.88-0.56-0.57-0.87-1.33-0.87-2.12v-2zM17 10c0.26 0 0.51-0.11 0.7-0.3s0.3-0.44 0.3-0.7v-2c0-0.27-0.11-0.52-0.3-0.71s-0.44-0.29-0.7-0.29h-2c-0.27 0-0.52 0.1-0.71 0.29s-0.29 0.44-0.29 0.71v2c0 0.26 0.1 0.51 0.29 0.7s0.44 0.3 0.71 0.3h2zM0 23c0-0.8 0.31-1.56 0.87-2.13 0.57-0.56 1.33-0.87 2.13-0.87h2c0.79 0 1.55 0.31 2.12 0.87 0.56 0.57 0.88 1.33 0.88 2.13v2c0 0.79-0.32 1.55-0.88 2.12-0.57 0.56-1.33 0.88-2.12 0.88h-2c-0.8 0-1.56-0.32-2.13-0.88-0.56-0.57-0.87-1.33-0.87-2.12v-2zM3 22c-0.27 0-0.52 0.1-0.71 0.29s-0.29 0.44-0.29 0.71v2c0 0.26 0.1 0.51 0.29 0.7s0.44 0.3 0.71 0.3h2c0.26 0 0.51-0.11 0.7-0.3s0.3-0.44 0.3-0.7v-2c0-0.27-0.11-0.52-0.3-0.71s-0.44-0.29-0.7-0.29h-2zM12 23c0-0.8 0.31-1.56 0.87-2.13 0.57-0.56 1.33-0.87 2.13-0.87h2c0.79 0 1.55 0.31 2.12 0.87 0.56 0.57 0.88 1.33 0.88 2.13v2c0 0.79-0.32 1.55-0.88 2.12-0.57 0.56-1.33 0.88-2.12 0.88h-2c-0.8 0-1.56-0.32-2.13-0.88-0.56-0.57-0.87-1.33-0.87-2.12v-2zM15 22c-0.27 0-0.52 0.1-0.71 0.29s-0.29 0.44-0.29 0.71v2c0 0.26 0.1 0.51 0.29 0.7s0.44 0.3 0.71 0.3h2c0.26 0 0.51-0.11 0.7-0.3s0.3-0.44 0.3-0.7v-2c0-0.27-0.11-0.52-0.3-0.71s-0.44-0.29-0.7-0.29h-2zM24 23c0-0.8 0.31-1.56 0.87-2.13 0.57-0.56 1.33-0.87 2.13-0.87h2c0.79 0 1.55 0.31 2.12 0.87 0.56 0.57 0.88 1.33 0.88 2.13v2c0 0.79-0.32 1.55-0.88 2.12-0.57 0.56-1.33 0.88-2.12 0.88h-2c-0.8 0-1.56-0.32-2.13-0.88-0.56-0.57-0.87-1.33-0.87-2.12v-2zM27 22c-0.27 0-0.52 0.1-0.71 0.29s-0.29 0.44-0.29 0.71v2c0 0.26 0.1 0.51 0.29 0.7s0.44 0.3 0.71 0.3h2c0.26 0 0.51-0.11 0.7-0.3s0.3-0.44 0.3-0.7v-2c0-0.27-0.11-0.52-0.3-0.71s-0.44-0.29-0.7-0.29h-2z"></path>
</symbol>
<symbol id="tv" viewBox="0 0 32 32">
<path d="M0 8c0 0 0-4 4-4h24c0 0 4 0 4 4v12c0 0 0 4-4 4h-8c0 1.33 0.16 2.33 0.5 3h1.5c0.26 0 0.51 0.1 0.7 0.29s0.3 0.44 0.3 0.71c0 0.26-0.11 0.51-0.3 0.7s-0.44 0.3-0.7 0.3h-12c-0.27 0-0.52-0.11-0.71-0.3s-0.29-0.44-0.29-0.7c0-0.27 0.1-0.52 0.29-0.71s0.44-0.29 0.71-0.29h1.5c0.33-0.67 0.5-1.67 0.5-3h-8c0 0-4 0-4-4v-12zM2.79 6.28c-0.22 0.16-0.39 0.37-0.51 0.61-0.17 0.35-0.26 0.73-0.28 1.13v11.98c0 0.65 0.15 1 0.29 1.2 0.14 0.21 0.34 0.38 0.6 0.51 0.34 0.16 0.7 0.26 1.080 0.28l0.050 0.010h23.98c0.65 0 1-0.16 1.2-0.29 0.22-0.16 0.39-0.37 0.51-0.61 0.16-0.34 0.26-0.7 0.28-1.070l0.010-0.050v-11.98c0-0.66-0.16-1.010-0.29-1.21-0.16-0.22-0.37-0.39-0.61-0.51-0.35-0.17-0.73-0.26-1.12-0.28h-23.98c-0.65 0-1.010 0.15-1.21 0.28z"></path>
</symbol>
<symbol id="van" viewBox="0 0 32 32">
<path d="M12 2h-10v28h10v-28zM30 2h-10v10h10v-10zM30 20v10h-10v-10h10zM0 2c0-0.54 0.21-1.040 0.58-1.42 0.38-0.37 0.88-0.58 1.42-0.58h10c0.53 0 1.030 0.21 1.41 0.58 0.37 0.38 0.59 0.88 0.59 1.42v28c0 0.53-0.22 1.030-0.59 1.41-0.38 0.37-0.88 0.59-1.41 0.59h-10c-0.54 0-1.040-0.22-1.42-0.59-0.37-0.38-0.58-0.88-0.58-1.41v-28zM18 2c0-0.54 0.21-1.040 0.58-1.42 0.38-0.37 0.88-0.58 1.42-0.58h10c0.53 0 1.030 0.21 1.41 0.58 0.37 0.38 0.59 0.88 0.59 1.42v10c0 0.53-0.22 1.030-0.59 1.41-0.38 0.37-0.88 0.59-1.41 0.59h-10c-0.54 0-1.040-0.22-1.42-0.59-0.37-0.38-0.58-0.88-0.58-1.41v-10zM20 18c-0.54 0-1.040 0.21-1.42 0.58-0.37 0.38-0.58 0.88-0.58 1.42v10c0 0.53 0.21 1.030 0.58 1.41 0.38 0.37 0.88 0.59 1.42 0.59h10c0.53 0 1.030-0.22 1.41-0.59 0.37-0.38 0.59-0.88 0.59-1.41v-10c0-0.54-0.22-1.040-0.59-1.42-0.38-0.37-0.88-0.58-1.41-0.58h-10z"></path>
</symbol>
<symbol id="TravelTrucks" viewBox="0 0 294 32">
<path fill="#475467" style="fill: var(--color1, #475467)" d="M293.84 15.583h-7.835c-0.043-0.477-0.217-0.89-0.499-1.237-0.304-0.347-0.695-0.629-1.172-0.803-0.456-0.195-0.977-0.304-1.541-0.304-0.716 0-1.346 0.13-1.866 0.412-0.543 0.26-0.781 0.651-0.781 1.129 0 0.347 0.13 0.673 0.456 0.977 0.304 0.304 0.933 0.521 1.823 0.694l4.818 0.868c2.431 0.434 4.232 1.172 5.404 2.235 1.194 1.042 1.801 2.431 1.801 4.167 0 1.693-0.499 3.147-1.498 4.406-0.998 1.215-2.344 2.192-4.058 2.865s-3.668 0.998-5.838 0.998c-3.624 0-6.446-0.738-8.508-2.214-2.018-1.498-3.169-3.429-3.407-5.86h8.464c0.109 0.738 0.477 1.324 1.107 1.736 0.629 0.391 1.432 0.608 2.387 0.608 0.781 0 1.432-0.13 1.932-0.412 0.521-0.26 0.781-0.651 0.781-1.129 0-0.456-0.217-0.825-0.673-1.085-0.434-0.26-1.107-0.477-2.040-0.651l-4.189-0.738c-2.409-0.412-4.21-1.215-5.426-2.409-1.194-1.172-1.801-2.691-1.78-4.558-0.022-1.649 0.412-3.038 1.302-4.167 0.868-1.15 2.127-2.040 3.776-2.626 1.628-0.608 3.581-0.912 5.838-0.912 3.407 0 6.12 0.716 8.095 2.127s3.017 3.386 3.125 5.882z"></path>
<path fill="#475467" style="fill: var(--color1, #475467)" d="M252.647 25.957l4.449-5.686h2.387l9.636-12.393h-9.571l-5.73 7.965h-1.107l-0.065 10.114zM245.008 31.557v-31.556h8.508v31.556h-8.508zM259.614 31.557l-5.426-9.376 5.556-6.034 9.615 15.409h-9.745z"></path>
<path fill="#475467" style="fill: var(--color1, #475467)" d="M229.208 31.991c-2.561 0-4.753-0.521-6.598-1.519-1.823-1.042-3.212-2.474-4.189-4.297-0.977-1.845-1.476-3.972-1.476-6.402 0-2.409 0.499-4.536 1.476-6.381 0.977-1.823 2.366-3.255 4.189-4.276 1.845-1.020 4.037-1.541 6.598-1.541 2.322 0 4.341 0.412 6.034 1.259 1.715 0.846 3.038 2.018 3.972 3.559 0.933 1.519 1.411 3.299 1.411 5.361h-7.9c-0.109-1.259-0.456-2.192-1.063-2.843s-1.367-0.977-2.322-0.977c-0.738 0-1.389 0.195-1.932 0.629-0.564 0.434-0.998 1.063-1.302 1.932-0.304 0.846-0.456 1.932-0.456 3.234 0 1.28 0.152 2.366 0.456 3.234 0.304 0.846 0.738 1.498 1.302 1.932 0.543 0.412 1.194 0.629 1.932 0.629 0.629 0 1.194-0.152 1.671-0.434 0.477-0.304 0.868-0.738 1.172-1.302s0.499-1.28 0.543-2.084h7.9c-0.022 2.084-0.499 3.885-1.432 5.447-0.933 1.541-2.235 2.735-3.928 3.581s-3.711 1.259-6.055 1.259z"></path>
<path fill="#475467" style="fill: var(--color1, #475467)" d="M204.097 21.204v-13.326h8.508v23.678h-8.074v-4.493h-0.239c-0.521 1.498-1.411 2.691-2.691 3.538-1.302 0.846-2.821 1.259-4.579 1.259-1.671 0-3.104-0.369-4.362-1.129-1.215-0.76-2.192-1.823-2.865-3.147-0.695-1.346-1.042-2.865-1.042-4.601v-15.105h8.508v13.326c0.022 1.172 0.304 2.084 0.89 2.756 0.608 0.673 1.432 0.998 2.496 0.998 0.716 0 1.324-0.152 1.845-0.456s0.912-0.738 1.194-1.28c0.282-0.564 0.434-1.237 0.412-2.018z"></path>
<path fill="#475467" style="fill: var(--color1, #475467)" d="M169.068 31.557v-23.678h8.247v4.514h0.26c0.434-1.671 1.107-2.887 2.040-3.668 0.955-0.76 2.062-1.15 3.321-1.15 0.369 0 0.738 0.022 1.085 0.087 0.369 0.065 0.738 0.13 1.063 0.239v7.249c-0.412-0.13-0.933-0.239-1.541-0.326-0.629-0.065-1.15-0.109-1.584-0.109-0.846 0-1.584 0.195-2.257 0.586-0.651 0.369-1.172 0.89-1.563 1.563-0.369 0.673-0.564 1.454-0.564 2.366v12.327h-8.508z"></path>
<path fill="#475467" style="fill: var(--color1, #475467)" d="M139.877 6.902v-6.902h27.433v6.902h-9.506v24.655h-8.443v-24.655h-9.484z"></path>
<path fill="#101828" style="fill: var(--color2, #101828)" d="M135.645 0v31.556h-8.508v-31.556h8.508z"></path>
<path fill="#101828" style="fill: var(--color2, #101828)" d="M111.207 31.991c-2.518 0-4.71-0.477-6.533-1.454s-3.212-2.366-4.21-4.189c-0.977-1.823-1.454-4.015-1.454-6.576 0-2.431 0.477-4.579 1.476-6.402 0.977-1.823 2.366-3.255 4.167-4.276s3.928-1.519 6.381-1.519c1.78 0 3.407 0.282 4.84 0.825 1.454 0.564 2.691 1.367 3.733 2.431 1.020 1.042 1.801 2.322 2.366 3.82 0.543 1.498 0.825 3.19 0.825 5.079v1.975h-21.139v-4.688h13.304c0-0.695-0.174-1.28-0.521-1.801-0.326-0.521-0.76-0.933-1.324-1.215-0.564-0.304-1.194-0.434-1.91-0.434-0.695 0-1.324 0.13-1.888 0.434-0.586 0.282-1.042 0.694-1.389 1.194-0.347 0.521-0.521 1.129-0.543 1.823v5.057c0 0.76 0.152 1.432 0.477 2.018 0.326 0.608 0.781 1.063 1.367 1.411 0.608 0.347 1.324 0.499 2.17 0.499 0.586 0 1.107-0.065 1.606-0.239 0.477-0.174 0.912-0.391 1.259-0.716 0.347-0.304 0.608-0.695 0.76-1.129h7.77c-0.26 1.649-0.89 3.060-1.888 4.276s-2.322 2.149-3.972 2.8c-1.628 0.673-3.538 0.998-5.73 0.998z"></path>
<path fill="#101828" style="fill: var(--color2, #101828)" d="M97.296 7.878l-7.943 23.678h-9.875l-7.943-23.678h8.942l3.82 15.67h0.239l3.82-15.67h8.942z"></path>
<path fill="#101828" style="fill: var(--color2, #101828)" d="M54.367 31.925c-1.498 0-2.843-0.239-4.015-0.738-1.15-0.499-2.040-1.259-2.713-2.279-0.651-1.020-0.977-2.322-0.977-3.885 0-1.302 0.217-2.409 0.673-3.321 0.434-0.912 1.042-1.671 1.845-2.257 0.781-0.586 1.715-1.042 2.756-1.346 1.063-0.304 2.192-0.499 3.429-0.608 1.324-0.087 2.387-0.217 3.19-0.369s1.389-0.369 1.758-0.629c0.347-0.282 0.521-0.629 0.521-1.085v-0.065c0-0.629-0.217-1.085-0.694-1.411-0.477-0.347-1.085-0.499-1.823-0.499-0.803 0-1.476 0.174-1.997 0.543-0.499 0.347-0.803 0.89-0.912 1.606h-7.813c0.087-1.432 0.543-2.756 1.367-3.972s2.018-2.192 3.581-2.93c1.584-0.738 3.538-1.107 5.903-1.107 1.693 0 3.212 0.195 4.558 0.608 1.346 0.391 2.496 0.933 3.429 1.649 0.955 0.694 1.671 1.519 2.17 2.452s0.738 1.953 0.738 3.060v16.212h-7.943v-3.321h-0.195c-0.456 0.868-1.042 1.584-1.715 2.127s-1.432 0.955-2.301 1.194c-0.846 0.239-1.801 0.369-2.821 0.369zM57.145 26.565c0.651 0 1.259-0.13 1.823-0.412 0.564-0.26 1.042-0.651 1.389-1.15 0.369-0.499 0.543-1.107 0.543-1.823v-1.975c-0.217 0.087-0.456 0.174-0.716 0.26-0.239 0.087-0.521 0.152-0.803 0.239-0.282 0.065-0.586 0.13-0.89 0.195s-0.629 0.109-0.977 0.174c-0.651 0.087-1.194 0.26-1.628 0.499-0.412 0.217-0.716 0.499-0.912 0.846-0.195 0.326-0.304 0.695-0.304 1.107 0 0.651 0.239 1.172 0.694 1.519 0.477 0.347 1.063 0.521 1.78 0.521z"></path>
<path fill="#101828" style="fill: var(--color2, #101828)" d="M29.191 31.557v-23.678h8.247v4.514h0.26c0.434-1.671 1.107-2.887 2.040-3.668 0.955-0.76 2.062-1.15 3.321-1.15 0.369 0 0.738 0.022 1.085 0.087 0.369 0.065 0.738 0.13 1.063 0.239v7.249c-0.412-0.13-0.933-0.239-1.541-0.326-0.629-0.065-1.15-0.109-1.606-0.109-0.825 0-1.563 0.195-2.235 0.586-0.673 0.369-1.172 0.89-1.563 1.563-0.369 0.673-0.564 1.454-0.564 2.366v12.327h-8.508z"></path>
<path fill="#101828" style="fill: var(--color2, #101828)" d="M0 6.902v-6.902h27.433v6.902h-9.506v24.655h-8.443v-24.655h-9.484z"></path>
</symbol>
</defs>
</svg>
